<svg width="459.094" height="393.213" viewBox="0 0 121.469 104.038" xmlns="http://www.w3.org/2000/svg"><path style="color:currentColor;display:inline;fill:currentColor;fill-opacity:1;stroke-linecap:round;stroke-linejoin:round;-inkscape-stroke:none" d="M421.438 38.865a75.346 75.346 0 0 0-3.04.012c-2.023.049-4.039.182-6.039.41-.446.063-1.083.138-1.496.193a52.774 52.774 0 0 0-4.377.801 65.94 65.94 0 0 0-4.353 1.145 87.117 87.117 0 0 0-4.322 1.42 125.692 125.692 0 0 0-4.274 1.617l-.014.006-.01.004a81.918 81.918 0 0 0-4.355 1.922c-.568.271-1.21.636-1.961 1.025-.833.432-1.589.796-2.232 1.164l-.01.006c-.405.234-1.112.646-1.551.922a2.835 2.835 0 0 1-.037.021 46.894 46.894 0 0 0-3.16 2.102 60.835 60.835 0 0 0-3.04 2.355 85.73 85.73 0 0 0-2.949 2.553c-.743.672-1.487 1.377-2.248 2.098-.251.238-.462.425-.625.58l-.008.008-.004.003a74.98 74.98 0 0 0-4.113 4.32 70.432 70.432 0 0 0-3.705 4.577 2.835 2.835 0 0 0 0 .002 57.679 57.679 0 0 0-2.799 4.133 54.053 54.053 0 0 0-2.412 4.353 50.17 50.17 0 0 0-1.977 4.54 46.737 46.737 0 0 0-1.5 4.704 2.835 2.835 0 0 1-.006.026 60.212 60.212 0 0 0-1.24 5.67c-.324 1.91-.56 3.84-.719 5.783a75.547 75.547 0 0 0-.234 5.635c.019-.005.036-.013.055-.018 1.447-.4 2.902-.735 4.353-1.025a96.049 96.049 0 0 1 4.326-.75h-.01c1.51-.236 3.14-.452 4.532-.63a2.835 2.835 0 0 1 .015-.001c.962-.117 1.865-.186 2.795-.27.093-1.037.184-2.075.336-3.107.205-1.392.463-2.775.774-4.145a53.51 53.51 0 0 1 1.095-4.076 2.835 2.835 0 0 0 0-.002c.419-1.344.893-2.67 1.42-3.978l.002-.006a54.13 54.13 0 0 1 1.272-3.086 54.68 54.68 0 0 1 3.17-6.016 55.115 55.115 0 0 1 3.882-5.578 54.842 54.842 0 0 1 2.196-2.6c.373-.415.701-.732.943-.988.416-.44.872-.944 1.408-1.47a53.805 53.805 0 0 1 2.479-2.282l.02-.015.01-.01a69.642 69.642 0 0 1 2.966-2.489 67.41 67.41 0 0 1 3.145-2.345 62.099 62.099 0 0 1 6.527-4.012l.002-.002c-.075.04-.02.004.176-.1a59.099 59.099 0 0 1 3.543-1.732 56.309 56.309 0 0 1 3.662-1.486 53.6 53.6 0 0 1 3.767-1.221 51.317 51.317 0 0 1 3.868-.937 2.835 2.835 0 0 1 .027-.006c.97-.186 1.94-.338 2.914-.455a47.535 47.535 0 0 1 2.922-.262 56.078 56.078 0 0 1 5.803-.028c.544.01 1.396.02 2.076.032h.002l10.187.15a2.835 2.835 0 0 1 1.948 4.856c-4.28 4.212-8.663 8.211-12.836 12.326-.546.558-1.08 1.103-1.582 1.644-.513.553-.993 1.101-1.418 1.649a13.178 13.178 0 0 0-1.104 1.638 8.485 8.485 0 0 0-.72 1.66 2.835 2.835 0 0 1-.042.126 14.46 14.46 0 0 0-.668 2.601c-.069.44-.115.881-.14 1.324a11.99 11.99 0 0 0-.004 1.305c.023.428.069.85.14 1.26.073.415.168.816.288 1.195.119.38.265.75.439 1.111.173.36.37.706.594 1.032a2.835 2.835 0 0 1 .029.045c.268.408.584.787.94 1.132.354.344.751.656 1.181.928a7.87 7.87 0 0 0 2.846 1.096 2.835 2.835 0 0 1 .111.023 18.15 18.15 0 0 0 1.58.268h.002c.53.066 1.065.11 1.608.133 1.084.046 2.186.011 3.297-.096a31.06 31.06 0 0 0 3.355-.522 41.619 41.619 0 0 0 5.633-1.613 29.198 29.198 0 0 0 2.174-.888c.698-.321 1.37-.67 2.01-1.051a16.338 16.338 0 0 0 1.808-1.244 2.835 2.835 0 0 1 .062-.05 107.023 107.023 0 0 0 3.688-2.923c1.213-.998 2.435-2.025 3.69-3.047l.001-.002a14.787 14.787 0 0 0 1.707-1.707c.52-.614.987-1.267 1.385-1.947.399-.682.731-1.392.987-2.117.255-.725.433-1.466.53-2.223a2.835 2.835 0 0 1 .009-.059 12.57 12.57 0 0 0 .111-2.707 13.386 13.386 0 0 0-.45-2.697 13.815 13.815 0 0 0-.983-2.564 13.48 13.48 0 0 0-1.47-2.301 2.835 2.835 0 0 1-.027-.035 37.227 37.227 0 0 0-1.789-2.153 42.199 42.199 0 0 0-1.955-2.037 48.38 48.38 0 0 0-2.097-1.928 55.697 55.697 0 0 0-2.188-1.798 38.88 38.88 0 0 0-4.144-2.756 39.56 39.56 0 0 0-4.457-2.213 39.736 39.736 0 0 0-7.121-2.23 38.75 38.75 0 0 0-2.45-.438 2.835 2.835 0 0 1-.074-.012 79.374 79.374 0 0 0-4.605-.654 87.48 87.48 0 0 0-4.649-.397 79.68 79.68 0 0 0-3.031-.107zm-71.823.014a82.44 82.44 0 0 0-3.59.176 2.835 2.835 0 0 1-.027.002c-.767.049-1.567.123-2.396.197h-.002c-1.552.163-3.096.35-4.618.588a55.55 55.55 0 0 0-4.486.877c-1.462.353-2.89.777-4.27 1.287-.69.255-1.366.53-2.029.83-.665.301-1.317.626-1.95.977a2.835 2.835 0 0 1-.054.029 47.4 47.4 0 0 0-4.6 2.764 47.96 47.96 0 0 0-4.267 3.261 47.74 47.74 0 0 0-3.87 3.717 46.877 46.877 0 0 0-3.364 4.06c-.23.353-.443.715-.63 1.087a11.467 11.467 0 0 0-1.129 3.773c-.05.438-.077.874-.077 1.307a10.163 10.163 0 0 0 .709 3.773 2.835 2.835 0 0 1 .023.06c.145.388.312.765.498 1.137.188.373.394.737.62 1.094.452.717.983 1.41 1.576 2.078.593.669 1.25 1.316 1.95 1.94.7.622 1.443 1.223 2.21 1.804a2.835 2.835 0 0 1 .068.051c1.808 1.458 3.484 2.94 5.16 4.193a26.121 26.121 0 0 0 2.522 1.688c.427.247.85.474 1.277.676.428.202.864.383 1.309.543a2.835 2.835 0 0 1 .062.023c1.221.471 2.463.894 3.713 1.252s2.509.653 3.768.867c1.26.215 2.517.35 3.763.39.625.022 1.247.019 1.864-.009a2.835 2.835 0 0 0 .002 0 22.137 22.137 0 0 0 1.81-.154l.008-.002a15.483 15.483 0 0 0 1.715-.336c.55-.143 1.074-.318 1.557-.527.48-.209.916-.45 1.3-.721a5.345 5.345 0 0 0 1.012-.914 2.835 2.835 0 0 1 .082-.094c.22-.237.422-.49.61-.756.185-.263.354-.541.51-.836a8.442 8.442 0 0 0 .724-1.886c.175-.67.28-1.37.316-2.083a11.24 11.24 0 0 0-.097-2.14 2.835 2.835 0 0 1-.004-.027 14.926 14.926 0 0 0-.422-2.065c-.19-.675-.425-1.33-.707-1.953a12.3 12.3 0 0 0-.985-1.78 10.927 10.927 0 0 0-1.252-1.548 2.835 2.835 0 0 1-.052-.057 97.198 97.198 0 0 0-2.826-2.926 174.555 174.555 0 0 0-2.954-2.867c-1.994-1.895-4.042-3.786-6.074-5.748l-3.232-3.062a2.835 2.835 0 0 1 1.949-4.893c5.084.002 10.235-.18 15.453-.182h.03c1.094-.01 2.184.022 3.27.098 1.095.077 2.184.196 3.265.356 1.08.159 2.153.359 3.214.593a48.63 48.63 0 0 1 3.155.81 51.88 51.88 0 0 1 6.101 2.206c.92.396 1.83.82 2.729 1.264.29-.27.564-.535.863-.805a91.283 91.283 0 0 1 3.145-2.72 66.493 66.493 0 0 1 3.324-2.575 53.81 53.81 0 0 1 2.814-1.873c-1.25-.536-2.488-1.094-3.77-1.574a114.03 114.03 0 0 0-6.173-2.102 61.079 61.079 0 0 0-4.041-1.09 57.809 57.809 0 0 0-8.242-1.316 56.056 56.056 0 0 0-4.166-.205 2.835 2.835 0 0 1-.051-.002 75.934 75.934 0 0 0-3.643 0zm51.608 21.219c-.385.222-.783.43-1.159.662a59.146 59.146 0 0 0-2.998 1.97 61.72 61.72 0 0 0-2.878 2.149 63.973 63.973 0 0 0-2.752 2.308 2.835 2.835 0 0 1-.028.024c-.573.495-1.12 1.016-1.668 1.535.598.697 1.205 1.385 1.768 2.11a53.67 53.67 0 0 1 2.445 3.41 51.25 51.25 0 0 1 2.174 3.617 2.835 2.835 0 0 1 .012.023 63.804 63.804 0 0 1 4.2 9.68 59 59 0 0 1 1.849 6.826c.237 1.158.436 2.324.597 3.496.161 1.172.283 2.353.363 3.54.04.589.032 1.057.045 1.394.026.642.07 1.363.067 2.16a55.356 55.356 0 0 1-.272 5.728 57.605 57.605 0 0 1-.85 5.668 59.646 59.646 0 0 1-1.398 5.55c-.189.623-.372 1.033-.449 1.267-.433 1.32-.887 2.7-1.459 4.101l-.006.014a77.492 77.492 0 0 1-5.744 11.963 73.141 73.141 0 0 1-2.389 3.768c-.403.594-.843 1.16-1.263 1.742.53.635 1.05 1.28 1.607 1.894a65.01 65.01 0 0 0 2.81 2.912 67.317 67.317 0 0 0 2.987 2.739c.762.657 1.554 1.28 2.344 1.904.263-.337.541-.674.798-1.012a167.967 167.967 0 0 0 2.954-3.996 231.075 231.075 0 0 0 5.603-8.213 171.883 171.883 0 0 0 2.098-3.396 83.713 83.713 0 0 0 1.945-3.414 54.187 54.187 0 0 0 1.707-3.455c.364-.812.696-1.709 1.047-2.664.176-.48.303-.745.338-.844.444-1.34.786-2.805 1.129-4.276a93.679 93.679 0 0 0 1.412-7.488 87.522 87.522 0 0 0 .765-7.562 2.835 2.835 0 0 1 0-.01c.01-.152.02-.517.036-.877.022-.502.046-.959.056-1.362.032-1.242.036-2.487.01-3.73a75.86 75.86 0 0 0-.168-3.723 70.644 70.644 0 0 0-.357-3.703 65.462 65.462 0 0 0-.555-3.664 60.755 60.755 0 0 0-.765-3.611c-.292-1.19-.62-2.37-.989-3.54a52.59 52.59 0 0 0-1.22-3.452 49.424 49.424 0 0 0-1.463-3.354 55.62 55.62 0 0 0-1.883-3.48 59.5 59.5 0 0 0-2.135-3.372 64.173 64.173 0 0 0-2.353-3.236 69.651 69.651 0 0 0-2.557-3.1 75.878 75.878 0 0 0-2.736-2.964c-.21-.217-.453-.44-.672-.657zm79.662 26.115c-.43-.012-.863.005-1.301.045l.002-.002c-.436.04-.868.105-1.295.193-.426.088-.854.203-1.285.34a14 14 0 0 0-1.268.473c-.839.36-1.66.804-2.445 1.316a18.417 18.417 0 0 0-2.236 1.723 2.835 2.835 0 0 1-.063.052c-1.337 1.134-2.667 2.248-3.963 3.368a98.9 98.9 0 0 0-3.754 3.39l-.008.008-.004.004c-.35.34-.682.696-1 1.068-.323.38-.633.777-.927 1.188a22.906 22.906 0 0 0-1.623 2.648 2.835 2.835 0 0 1-.032.059 40.222 40.222 0 0 0-1.808 3.646 31.476 31.476 0 0 0-1.36 3.77 26.287 26.287 0 0 0-.474 1.912c-.133.638-.24 1.275-.319 1.912a19.478 19.478 0 0 0-.11 3.783 7.892 7.892 0 0 0 .895 3.006c.247.462.536.89.864 1.278a6.54 6.54 0 0 0 1.098 1.029 2.835 2.835 0 0 1 .054.043c.332.258.68.489 1.047.695.367.207.747.387 1.145.543.4.157.815.29 1.238.397.424.107.861.191 1.312.252.45.06.908.094 1.37.107.461.013.928.002 1.398-.031a2.835 2.835 0 0 0 .002 0c.94-.066 1.879-.22 2.781-.45a9.196 9.196 0 0 0 1.57-.568c.529-.243 1.067-.539 1.624-.879 1.089-.665 2.235-1.496 3.49-2.328a.178.178 0 0 1 .02-.014c3.244-2.272 6.435-4.827 9.867-7.242a2.835 2.835 0 0 1 .294-.181 5.213 5.213 0 0 1 2.493-.64c.473 0 .984.067 1.504.243.339.115.645.352.96.559.406.212.81.448 1.086.742.358.379.585.76.745 1.092.33.684.432 1.25.5 1.675a2.835 2.835 0 0 1 .035.502c-.017.835-.153 1.532-.268 2.1-.114.568-.206 1.005-.236 1.315a2.835 2.835 0 0 1-.022.173c-.433 2.691-.813 5.497-1.379 8.342a52.093 52.093 0 0 1-1.025 4.29 35.31 35.31 0 0 1-1.514 4.253 50.509 50.509 0 0 1-1.613 3.514 53.086 53.086 0 0 1-1.879 3.39 56.093 56.093 0 0 1-2.105 3.239 59.533 59.533 0 0 1-2.313 3.086 63.119 63.119 0 0 1-2.496 2.927 70.454 70.454 0 0 1-5.463 5.377 73.91 73.91 0 0 1-2.926 2.448 2.835 2.835 0 0 1-.01.008c-.464.365-.946.706-1.421 1.056.173 1.698.305 3.4.38 5.1v.002c.081 1.8.108 3.596.09 5.39.01.989-.014 1.971-.062 2.948a54.533 54.533 0 0 1-.227 2.943c-.022.215-.073.424-.097.639.988-.655 1.999-1.275 2.96-1.969a2.835 2.835 0 0 1 .02-.014c.434-.307.904-.667 1.467-1.086.42-.335.964-.744 1.232-.959a96.705 96.705 0 0 0 4.557-3.875 58.842 58.842 0 0 0 2.121-2.03 46.274 46.274 0 0 0 1.979-2.12c.693-.81 1.529-1.8 2.181-2.652a2.835 2.835 0 0 1 .01-.014 77.176 77.176 0 0 0 2.707-3.725 84.03 84.03 0 0 0 2.498-3.886 91.7 91.7 0 0 0 2.295-4.024 100.525 100.525 0 0 0 2.104-4.14c.239-.518.603-1.321.847-1.9a2.835 2.835 0 0 1 .016-.038c.506-1.155.968-2.33 1.389-3.521a57.144 57.144 0 0 0 1.144-3.627c.342-1.223.647-2.46.916-3.71a70.98 70.98 0 0 0 .707-3.773 2.835 2.835 0 0 1 .002-.021 75.77 75.77 0 0 0 .57-4.11c.154-1.378.273-2.751.356-4.07.075-1.27.119-2.491.129-3.814a77.754 77.754 0 0 0-.053-3.47 39.386 39.386 0 0 0-.252-3.226c-.1-.695-.15-1.07-.273-1.713a43.38 43.38 0 0 0-.551-2.476c-.233-.9-.495-1.79-.787-2.672a43.833 43.833 0 0 0-.961-2.62 45.744 45.744 0 0 0-2.406-5.058 49.537 49.537 0 0 0-2.989-4.77A52.897 52.897 0 0 0 488.885 90a12.63 12.63 0 0 0-1.705-1.545 11.99 11.99 0 0 0-1.963-1.199 10.684 10.684 0 0 0-2.106-.764 9.234 9.234 0 0 0-2.174-.277 2.835 2.835 0 0 1-.052-.002zm-188.432.383a2.835 2.835 0 0 1-.07.017 12.93 12.93 0 0 0-2.896.213 13.635 13.635 0 0 0-5.365 2.291c-.394.281-.774.589-1.142.918a2.835 2.835 0 0 0-.002 0c-.367.33-.71.674-1.029 1.031a2.835 2.835 0 0 1-.039.043 36.917 36.917 0 0 0-1.908 2.24 41.29 41.29 0 0 0-1.748 2.397 46.555 46.555 0 0 0-1.594 2.531 52.336 52.336 0 0 0-1.44 2.627l-.004.008a38.736 38.736 0 0 0-3.187 8.922 39.027 39.027 0 0 0-.453 2.334 38.807 38.807 0 0 0-.485 7.106 2.835 2.835 0 0 1 0 .082c-.004 1.032.011 1.99.047 2.927a2.835 2.835 0 0 1 .002.04c.02.78.055 1.394.104 2.269l.002.016v.006c.14 2.216.368 4.43.693 6.625a72.85 72.85 0 0 0 .563 3.283c.212 1.09.45 2.173.715 3.248a64.617 64.617 0 0 0 1.91 6.334 57.444 57.444 0 0 0 1.207 3.066c.431 1.01.893 2.005 1.385 2.987a2.835 2.835 0 0 1 .008.013 90.706 90.706 0 0 0 6.445 11.035 85.796 85.796 0 0 0 2.482 3.44c.729.95 1.49 1.875 2.283 2.775a55.22 55.22 0 0 0 2.471 2.623 58.41 58.41 0 0 0 2.64 2.467 61.715 61.715 0 0 0 2.792 2.31 2.835 2.835 0 0 1 .037.028 88.78 88.78 0 0 0 4.955 3.725 76.059 76.059 0 0 0 5.195 3.324s.211.09.612.318c1.607.916 3.205 1.777 4.818 2.525.922.428 1.856.83 2.8 1.211.943.38 1.895.733 2.856 1.061a2.835 2.835 0 0 0 0 .002c.773.263 1.845.603 2.713.844a2.835 2.835 0 0 1 .006.002c.898.25 1.8.474 2.711.672.9.195 1.809.364 2.72.51h.005a2.133 2.133 0 0 1 .037.003 2.835 2.835 0 0 1 .03.006c1.835.29 3.69.483 5.556.586 1.88.104 3.772.12 5.666.053a72.08 72.08 0 0 0 5.678-.43 2.835 2.835 0 0 1 .008 0 74.695 74.695 0 0 0 4.214-.615 88.804 88.804 0 0 0 5.448-1.17c.201-.126.365-.236.636-.379a15.155 15.155 0 0 1 1.694-.761c.58-.22 1.18-.404 1.797-.547a13.281 13.281 0 0 1 1.888-.3h.002c.379-.031.67-.016.983-.01a80.795 80.795 0 0 0 5.83-2.198 76.294 76.294 0 0 0 5.664-2.682 47.35 47.35 0 0 0 3.637-2.404 66.475 66.475 0 0 0 3.546-2.785 106.997 106.997 0 0 0 3.125-2.74c-.495-.483-1.006-.955-1.488-1.44a2.835 2.835 0 0 1-.014-.014c-1.816-1.855-3.67-3.726-5.494-5.662a119.65 119.65 0 0 1-2.703-2.96c-.178-.203-.337-.407-.512-.61-.711.492-1.397 1-2.136 1.47a81.832 81.832 0 0 1-10.399 5.606 2.835 2.835 0 0 1-.047.022 55.904 55.904 0 0 1-11.98 3.584 55.557 55.557 0 0 1-12.479.834 53.908 53.908 0 0 1-4.168-.36 52.795 52.795 0 0 1-4.125-.683l-.008-.002c-.747-.143-1.45-.307-2.107-.457-.183-.042-.476-.093-.87-.19a56.59 56.59 0 0 1-5.919-1.804 55.088 55.088 0 0 1-5.691-2.458 52.995 52.995 0 0 1-5.38-3.105 50.509 50.509 0 0 1-2.216-1.562c.014.01-.111-.07-.299-.21l-.02-.015-.011-.008a68.172 68.172 0 0 1-2.914-2.258 65.7 65.7 0 0 1-5.506-5.041 64.014 64.014 0 0 1-2.531-2.754 62.137 62.137 0 0 1-2.366-2.9 60.195 60.195 0 0 1-2.185-3.043 56.378 56.378 0 0 1-3.775-6.496 2.835 2.835 0 0 1-.008-.014 44.391 44.391 0 0 1-1.596-3.678 46.835 46.835 0 0 1-1.262-3.789 49.306 49.306 0 0 1-.941-3.865 51.89 51.89 0 0 1-.635-3.92l.016.11c-.657-4.04-1.313-8.08-1.971-12.118a2.835 2.835 0 0 1 4.441-2.763c4.997 3.555 9.797 7.254 14.682 10.705h.002a73.85 73.85 0 0 0 1.803 1.197c.593.377 1.177.725 1.75 1.025.573.301 1.133.553 1.68.746.55.195 1.08.33 1.6.4a2.835 2.835 0 0 1 .132.022c.878.163 1.793.248 2.699.244.456-.002.906-.024 1.344-.07.438-.046.875-.116 1.302-.209a10.72 10.72 0 0 0 1.233-.344c.4-.138.782-.299 1.144-.48a8.496 8.496 0 0 0 1.043-.617c.328-.228.636-.478.928-.756a2.835 2.835 0 0 1 .037-.035c.361-.332.686-.703.97-1.11.287-.409.533-.852.731-1.314a7.745 7.745 0 0 0 .63-2.975 2.835 2.835 0 0 1 .001-.11c.047-.967.01-1.942-.103-2.925-.112-.981-.3-1.97-.55-2.96-.248-.991-.558-1.982-.917-2.966a40.833 40.833 0 0 0-1.19-2.89 61.764 61.764 0 0 0-1.226-2.407 33.734 33.734 0 0 0-1.34-2.273 22.145 22.145 0 0 0-1.486-2.045 16.22 16.22 0 0 0-1.68-1.76 2.835 2.835 0 0 1-.045-.04 114.086 114.086 0 0 0-3.506-3.134c-1.197-1.032-2.42-2.063-3.646-3.115a15.604 15.604 0 0 0-1.832-1.34 14.134 14.134 0 0 0-1.985-1.029 12.312 12.312 0 0 0-2.068-.67c-.7-.158-1.404-.248-2.11-.265zm93.154 18.271a74.696 74.696 0 0 0-1.34.004c-2.958.101-5.91.247-8.851.46-1.189.085-2.45.24-3.793.364-1.733.16-3.41.285-5.02.48l-.017.003c-1.363.174-2.947.385-4.36.605a2.835 2.835 0 0 1-.007.002c-1.372.21-2.733.44-4.073.707-1.339.268-2.66.573-3.95.93a40.032 40.032 0 0 0-3.304 1.088c-.396.147-.556.187-.466.152a30.156 30.156 0 0 0-3.538 1.637 2.835 2.835 0 0 1-.09.047 93.432 93.432 0 0 0-4.564 2.445 88.857 88.857 0 0 0-4.412 2.697 84.296 84.296 0 0 0-4.234 2.95 80.039 80.039 0 0 0-4.035 3.205 81.134 81.134 0 0 0-3.387 3.064 2.835 2.835 0 0 1-.008.006 66.27 66.27 0 0 0-4.768 5.049c-.75.881-1.473 1.78-2.17 2.697a57.833 57.833 0 0 0-2.004 2.809 53.844 53.844 0 0 0-1.816 2.914 50.205 50.205 0 0 0-1.613 3.014 47.132 47.132 0 0 0-1.397 3.111 44.412 44.412 0 0 0-1.156 3.203 2.835 2.835 0 0 1-.008.022 63.835 63.835 0 0 0-1.023 3.45 67.111 67.111 0 0 0-1.483 7.055c-.01.07-.02.162-.031.233.206.143.415.301.621.437a46.107 46.107 0 0 0 4.797 2.77 48.453 48.453 0 0 0 5.1 2.201c.869.318 1.75.614 2.64.885.18.055.364.097.545.15.116-.593.22-1.19.356-1.779a55.297 55.297 0 0 1 1.75-6.043c.35-.992.73-1.971 1.136-2.938a53.499 53.499 0 0 1 2.766-5.638 56.861 56.861 0 0 1 2.889-4.744 55.65 55.65 0 0 1 3.36-4.46 53.98 53.98 0 0 1 3.806-4.099 52.003 52.003 0 0 1 4.203-3.666l.008-.006a53.87 53.87 0 0 1 4.424-3.166 57.596 57.596 0 0 1 4.699-2.709c.373-.192.547-.254.5-.23a61.802 61.802 0 0 1 4.41-2.037 65.857 65.857 0 0 1 5.072-1.836 77.298 77.298 0 0 1 8.377-2.338 75.009 75.009 0 0 1 3.444-.655c.16-.027.447-.097.869-.164a72.871 72.871 0 0 1 4.355-.558 2.835 2.835 0 0 0 .002 0 70.462 70.462 0 0 1 4.387-.293 68.018 68.018 0 0 1 4.402-.012c1.467.044 2.934.135 4.4.277 1.208.118 2.41.292 3.61.479.353-1.266.704-2.533.963-3.818.34-1.69.597-3.397.767-5.11.153-1.54.21-3.088.22-4.635-.742-.074-1.527-.16-2.227-.21-1.89-.123-3.758-.25-5.606-.338-1.386-.067-2.76-.11-4.127-.12zm38.77 6.64c-.024.262-.036.525-.063.786a93.185 93.185 0 0 1-1.164 8.01 99.37 99.37 0 0 1-.83 3.957 2.835 2.835 0 0 1-.002.004 73.183 73.183 0 0 1-.894 3.484c.377.213.755.402 1.13.631a55.985 55.985 0 0 1 3.471 2.295 56.144 56.144 0 0 1 6.387 5.32 55.56 55.56 0 0 1 5.527 6.219 53.85 53.85 0 0 1 4.502 6.975 57.47 57.47 0 0 1 3.79 8.234 55.218 55.218 0 0 1 1.769 5.8 52.816 52.816 0 0 1 1.076 5.823l.002.01a2.835 2.835 0 0 0 0 .002c-.014-.115-.006-.073.02.125l.002.018c.124.999.217 2.003.28 3.007.002.01.002.021.003.032a68.998 68.998 0 0 1 .143 7.486 64.22 64.22 0 0 1-1.39 11.223c-.143.655-.301 1.203-.413 1.658-.145.59-.291 1.266-.502 2.012a58.11 58.11 0 0 1-1.149 3.609 56.23 56.23 0 0 1-1.388 3.537 2.835 2.835 0 0 1-.004.006 44.85 44.85 0 0 1-3.727 6.855 47.13 47.13 0 0 1-4.803 6.12l.069-.077c-2.792 3.245-5.59 6.483-8.381 9.721a2.835 2.835 0 0 1-4.973-1.619c-.485-5.902-.774-11.76-1.226-17.547-.104-1.262-.267-2.74-.494-3.982a2.835 2.835 0 0 1-.02-.127 9.686 9.686 0 0 0-.28-1.33 10.88 10.88 0 0 0-.466-1.307c-.185-.433-.398-.86-.637-1.277-.24-.42-.503-.83-.789-1.229a2.835 2.835 0 0 1-.033-.047 12.875 12.875 0 0 0-2.535-2.726c-.318-.252-.65-.486-.994-.701.004.003-.099-.056-.121-.067h-.002c-.752-.201-1.524-.403-2.332-.646-.714-.216-1.37-.44-2.012-.655a6.153 6.153 0 0 0-1.285.08c-.458.08-.917.21-1.371.387a8.483 8.483 0 0 0-1.34.666 9.412 9.412 0 0 0-1.239.904 2.835 2.835 0 0 1-.082.069c-.554.442-1.083.924-1.587 1.441a21.163 21.163 0 0 0-1.448 1.655c-.46.583-.9 1.193-1.32 1.828-.417.63-.815 1.283-1.195 1.95l-.008.015c-.234.436-.485.875-.662 1.226a.42.42 0 0 1-.006.012l-.004.008c-.368.743-.72 1.488-1.047 2.232a39.081 39.081 0 0 0-.916 2.262 29.29 29.29 0 0 0-.735 2.266c-.205.74-.372 1.481-.502 2.224-.118.9-.199 1.817-.252 2.75-.054.951-.08 1.923-.093 2.914-.029 1.977-.006 4.02-.069 6.12l.002-.085c0 .818.065 1.642.196 2.446.13.804.329 1.59.591 2.345.263.757.59 1.476.979 2.149a10.693 10.693 0 0 0 1.361 1.873 2.835 2.835 0 0 1 .033.037c.31.355.644.695.997 1.016a12.92 12.92 0 0 0 2.314 1.68c.42.24.851.46 1.29.654a13.903 13.903 0 0 0 2.751.886 13.47 13.47 0 0 0 2.865.295 2.835 2.835 0 0 1 .067 0 45.572 45.572 0 0 0 8.375-.623 41.308 41.308 0 0 0 5.43-1.3 39.756 39.756 0 0 0 2.622-.92 38.319 38.319 0 0 0 2.547-1.102 36.871 36.871 0 0 0 2.455-1.283 2.835 2.835 0 0 1 .028-.016 34.84 34.84 0 0 0 3.103-1.96 47.68 47.68 0 0 0 2.967-2.284 74.14 74.14 0 0 0 2.875-2.525c.94-.867 1.872-1.757 2.803-2.659a76.016 76.016 0 0 0 4.273-4.6 68.517 68.517 0 0 0 3.846-4.933c.6-.848 1.18-1.711 1.736-2.588a59.865 59.865 0 0 0 3.051-5.404 54.36 54.36 0 0 0 1.297-2.814 2.835 2.835 0 0 1 .016-.04 88.127 88.127 0 0 0 2.53-6.443 91.693 91.693 0 0 0 1.636-5.182c.377-1.339.696-2.734 1.01-4.17.114-.526.221-.877.26-1.066.35-1.752.625-3.51.808-5.267.091-.88.16-1.759.203-2.64.043-.88.064-1.759.056-2.636a2.835 2.835 0 0 0 0-.002 2.835 2.835 0 0 1 0-.055c.018-1.706-.01-3.41-.085-5.11-.076-1.702-.2-3.398-.38-5.085-.028-.273-.106-.681-.173-1.232-.16-1.315-.318-2.582-.53-3.795a68.644 68.644 0 0 0-1.05-4.951 2.835 2.835 0 0 1-.004-.014c-.201-.816-.5-1.925-.772-2.81a2.835 2.835 0 0 1-.004-.014 51.569 51.569 0 0 0-1.705-4.782 51.757 51.757 0 0 0-2.17-4.59 50.633 50.633 0 0 0-5.629-8.424c-.448-.542-1.083-1.311-1.576-1.874a2.835 2.835 0 0 0 0-.002 71.367 71.367 0 0 0-2.85-3.073 74.158 74.158 0 0 0-3.023-2.904 77.286 77.286 0 0 0-6.517-5.303 83.696 83.696 0 0 0-7.05-4.625 89.71 89.71 0 0 0-3.689-2.052c-.511-.27-1.036-.514-1.552-.774zm-52.18 13.895c-.273.055-.565.1-.834.159a71.601 71.601 0 0 0-7.82 2.185 2.835 2.835 0 0 1-.059.02 60.185 60.185 0 0 0-4.634 1.677c-.56.23-1.118.52-1.676.776.01.023.017.047.027.07.355.819.746 1.637 1.16 2.455.82 1.62 1.737 3.234 2.688 4.858l.01.015.01.018a160.556 160.556 0 0 0 2.955 4.697 175.34 175.34 0 0 0 3.135 4.635c1.07 1.53 2.163 3.044 3.279 4.545a214.36 214.36 0 0 0 3.398 4.443l.012.016c.047.057.17.19.365.431.682.84 1.36 1.66 2.051 2.444.837.95 1.696 1.887 2.574 2.82 1.752 1.86 3.574 3.699 5.403 5.566l.008.008.008.008a134.605 134.605 0 0 0 3.513 3.4c.12.112.16.154.125.122a135.843 135.843 0 0 0 3.701 3.328 2.835 2.835 0 0 0 .002.002c.957.83 1.921 1.644 2.897 2.426a57.62 57.62 0 0 0 2.959 2.232c1 .702 2.018 1.356 3.057 1.951a30.478 30.478 0 0 0 3.18 1.596 2.835 2.835 0 0 1 .032.014 98.056 98.056 0 0 0 3.563 1.494c1.198.475 2.406.926 3.62 1.35.322.112.73.238 1.15.373.345.023.683.037 1.107.11.639.112 1.26.269 1.86.462a14.56 14.56 0 0 1 1.75.693c.296.14.44.232.616.334.326.092.656.188.895.248a77.198 77.198 0 0 0 7.52 1.525c1.26.192 2.527.351 3.798.477 1.27.126 2.542.217 3.817.274.753.026 1.778.064 2.574.072a60.513 60.513 0 0 0 5.03-.172c.515-.04 1.098-.134 1.644-.203.206-.988.395-1.98.549-2.983a58.558 58.558 0 0 0 .644-6.853c.042-1.147.052-2.298.03-3.45a63.259 63.259 0 0 0-.159-3.353c-.868.144-1.726.34-2.601.444a56.527 56.527 0 0 1-5.852.392 2.835 2.835 0 0 0-.002 0 53.827 53.827 0 0 1-5.873-.228 51.79 51.79 0 0 1-5.797-.883l-.015-.004a53.37 53.37 0 0 1-5.245-1.332 57.136 57.136 0 0 1-5.083-1.834 61.233 61.233 0 0 1-4.881-2.285 65.312 65.312 0 0 1-4.627-2.668 78.988 78.988 0 0 1-3.662-2.344c-.76-.516-1.441-1.032-2.08-1.498-.416-.303-.922-.643-1.477-1.068a75.284 75.284 0 0 1-3.406-2.77 72.991 72.991 0 0 1-3.239-2.969 70.633 70.633 0 0 1-3.054-3.166 68.091 68.091 0 0 1-2.848-3.357 2.835 2.835 0 0 0-.002 0c-.231-.291-.343-.463-.367-.494a65.314 65.314 0 0 1-2.26-3.05 63.432 63.432 0 0 1-2.377-3.71l-.006-.01c0-.001 0-.003-.002-.004a79.648 79.648 0 0 1-2.842-5.166 81.446 81.446 0 0 1-2.46-5.37c-.538-1.295-1.003-2.62-1.475-3.94zm-61.658 64.682c.255.844.48 1.693.762 2.533.57 1.7 1.189 3.389 1.847 5.063v-.004a82.615 82.615 0 0 0 1.875 4.37 2.835 2.835 0 0 1 .01.022c.416.913.86 1.812 1.327 2.696.467.884.96 1.756 1.478 2.617.518.86 1.058 1.707 1.621 2.543a63.82 63.82 0 0 0 1.756 2.472 72.268 72.268 0 0 0 3.848 4.723 86.637 86.637 0 0 0 4.226 4.436l.002.002a73.068 73.068 0 0 0 2.55 2.382 2.835 2.835 0 0 1 .01.01c.856.763 1.721 1.506 2.6 2.215.88.71 1.772 1.386 2.682 2.022.91.635 1.835 1.229 2.78 1.767a28.86 28.86 0 0 0 2.894 1.45 2.835 2.835 0 0 1 .035.015c.992.442 2.004.847 3.031 1.215 1.027.368 2.067.699 3.12.992a47.25 47.25 0 0 0 3.189.772c1.074.22 2.154.405 3.238.552.514.059 1.184.157 1.604.204l-.022-.004c1.653.169 3.275.303 4.834.312.777.005 1.542-.023 2.291-.088a18.026 18.026 0 0 0 2.158-.314 10.326 10.326 0 0 0 2.45-.934c.393-.209.777-.445 1.15-.705a2.835 2.835 0 0 0 0-.002 11.283 11.283 0 0 0 2.842-2.865 10.7 10.7 0 0 0 1.213-2.373 2.835 2.835 0 0 1 .023-.06c.16-.418.3-.846.42-1.286.12-.439.22-.89.305-1.354.167-.92.264-1.88.306-2.857l.002-.01c.008-.397.027-1.055.02-1.361l.002.072c-.113-2.361-.048-4.628-.086-6.771a41.4 41.4 0 0 0-.158-3.118 21.836 21.836 0 0 0-.451-2.87 41.517 41.517 0 0 0-1.239-3.735 36.271 36.271 0 0 0-1.63-3.63 31.317 31.317 0 0 0-2.018-3.366 26.476 26.476 0 0 0-2.412-3.018 20.015 20.015 0 0 0-1.535-1.44c-.54-.45-1.09-.852-1.637-1.179a8.236 8.236 0 0 0-1.643-.764 6.233 6.233 0 0 0-.812-.209 5.582 5.582 0 0 0-.67-.074h-.002a89.774 89.774 0 0 1-5.65 1.653l-.016.004c-.297.207-.589.423-.865.658a12.13 12.13 0 0 0-1.692 1.765 2.835 2.835 0 0 1-.029.036c-.382.472-.733.966-1.05 1.48a13.18 13.18 0 0 0-.839 1.576c-.239.538-.437 1.086-.59 1.639-.152.552-.259 1.109-.318 1.674a2.835 2.835 0 0 1-.01.08 91.13 91.13 0 0 0-.43 3.922 149.888 149.888 0 0 0-.295 3.982c-.166 2.673-.284 5.38-.445 8.113l.002-.275a4.39 4.39 0 0 1-.265 1.66c-.178.48-.414.868-.637 1.174-.442.605-.8.92-.924 1.06a2.835 2.835 0 0 1-2.14.96c-.036 0-.41.058-1.09.05a4.645 4.645 0 0 1-1.284-.183 4.27 4.27 0 0 1-1.47-.793c-.699-.557-1.212-1.145-1.616-1.635-.417-.507-.744-.921-1.005-1.195a2.835 2.835 0 0 1-.092-.102c-1.785-2.06-3.692-4.154-5.506-6.42a51.02 51.02 0 0 1-2.62-3.55 34.766 34.766 0 0 1-2.269-3.903 51.068 51.068 0 0 1-1.715-3.672 53.564 53.564 0 0 1-1.43-3.797c-.308-.924-.562-1.863-.822-2.8-.423-.082-.849-.147-1.271-.239a52.828 52.828 0 0 1-3.033-.752 58.354 58.354 0 0 1-3.026-.941 61.568 61.568 0 0 1-3.142-1.17 65.803 65.803 0 0 1-2.602-1.125z" transform="matrix(.52917 0 0 .52917 -143.446 -20.56)"/></svg>