<?xml version="1.0" encoding="UTF-8" standalone="no"?>
<!-- Created with Inkscape (http://www.inkscape.org/) -->

<svg
   version="1.1"
   id="svg1"
   width="64"
   height="64"
   viewBox="0 0 64 64"
   sodipodi:docname="Logo_piece.svg"
   inkscape:version="1.3 (0e150ed6c4, 2023-07-21)"
   xmlns:inkscape="http://www.inkscape.org/namespaces/inkscape"
   xmlns:sodipodi="http://sodipodi.sourceforge.net/DTD/sodipodi-0.dtd"
   xmlns="http://www.w3.org/2000/svg"
   xmlns:svg="http://www.w3.org/2000/svg">
  <defs
     id="defs1" />
  <sodipodi:namedview
     id="namedview1"
     pagecolor="#ffffff"
     bordercolor="#000000"
     borderopacity="0.25"
     inkscape:showpageshadow="2"
     inkscape:pageopacity="0.0"
     inkscape:pagecheckerboard="0"
     inkscape:deskcolor="#d1d1d1"
     inkscape:zoom="6.5971622"
     inkscape:cx="33.271881"
     inkscape:cy="24.177062"
     inkscape:window-width="1366"
     inkscape:window-height="715"
     inkscape:window-x="-8"
     inkscape:window-y="-8"
     inkscape:window-maximized="1"
     inkscape:current-layer="g1" />
  <g
     inkscape:groupmode="layer"
     inkscape:label="Image"
     id="g1">
    <path
       id="path1"
       style="fill:#121212;stroke-width:0.666667"
       d="m 34.43315,15.576172 c -2.043144,-0.03704 -3.962539,0.55546 -5.481978,1.730469 -1.51944,1.175008 -2.800871,2.651923 -3.59375,4.003906 -0.792879,1.351983 -1.78942,3.93345 -1.888672,6.041015 -0.118147,2.508783 0.276974,5.213462 1.5625,7.371094 1.482834,2.488794 3.981881,4.433752 6.619141,5.632813 2.090639,0.950534 6.769148,1.026172 6.858398,1.026172 0.08925,0 4.765806,-0.07564 6.856445,-1.026172 2.63726,-1.199061 5.136307,-3.144019 6.619141,-5.632813 1.285526,-2.157632 1.680647,-4.862311 1.5625,-7.371094 -0.09925,-2.107565 -1.095793,-4.689032 -1.888672,-6.041015 -0.792879,-1.351983 -2.072357,-2.828898 -3.591797,-4.003906 -1.519439,-1.175009 -3.683418,-1.767509 -5.726562,-1.730469 -2.043144,0.03704 -3.564342,1.589151 -3.549512,3.884766 0.01483,2.295615 0.0096,2.406901 0.451856,3.578124 0.442238,1.171224 1.685038,3.256939 3.539062,3.324219 1.854025,0.06728 2.916988,-1.418902 3.289062,-2.365234 0.243469,-0.619233 0.308594,-2.03125 0.308594,-2.03125 1.342703,1.501762 1.79954,3.709049 1.75,5.564453 -0.04954,1.855404 -0.591287,3.180384 -1.421875,4.46875 -0.830588,1.288366 -2.211746,2.426187 -3.720703,3.027344 -1.50896,0.601156 -2.944242,0.934618 -4.464844,0.935547 C 36.99196,35.963826 35.538257,35.6285 34.029297,35.027344 32.52034,34.426187 31.139182,33.288366 30.308594,32 29.478006,30.711634 28.93821,29.386654 28.888672,27.53125 c -0.04954,-1.855404 0.405344,-4.062691 1.748047,-5.564453 0,0 0.06708,1.412017 0.310547,2.03125 0.372074,0.946332 1.433084,2.432515 3.287109,2.365234 1.854024,-0.06728 3.096824,-2.152995 3.539063,-3.324219 0.442237,-1.171223 0.461291,-1.282509 0.476119,-3.578124 0.01483,-2.295615 -1.773263,-3.847726 -3.816407,-3.884766 z"
       sodipodi:nodetypes="sssssscsssssssssscssssssscsssss" />
  </g>
</svg>
