<?xml version="1.0" encoding="UTF-8" standalone="no"?>
<!-- Created with Inkscape (http://www.inkscape.org/) -->

<svg
   width="512"
   height="512"
   viewBox="0 0 135.46666 135.46667"
   version="1.1"
   id="svg1"
   xmlns="http://www.w3.org/2000/svg"
   xmlns:svg="http://www.w3.org/2000/svg">
  <defs
     id="defs1" />
  <g
     id="layer1">
    <rect
       style="fill:#171717;stroke:none;stroke-width:1.5;stroke-linecap:round;stroke-linejoin:round;fill-opacity:1"
       id="rect1"
       width="135.46666"
       height="135.46666"
       x="0"
       y="0" />
    <g
       id="g79"
       transform="matrix(0.52916666,0,0,0.52916666,-136.44699,-4.8463234)">
      <path
         id="path121"
         style="color:#000000;display:inline;fill:#e133e3;fill-opacity:1;stroke-linecap:round;stroke-linejoin:round;-inkscape-stroke:none"
         d="m 421.4375,38.865234 c -1.01507,-0.01641 -2.02789,-0.01272 -3.03906,0.01172 -2.02308,0.0489 -4.03937,0.181907 -6.03906,0.410156 -0.44616,0.06294 -1.08381,0.13745 -1.4961,0.19336 -1.46565,0.202549 -2.92298,0.473183 -4.37695,0.800781 -1.45681,0.328249 -2.90823,0.713368 -4.35352,1.144531 -1.44512,0.431115 -2.88484,0.907962 -4.32226,1.419922 -1.42834,0.508709 -2.85398,1.052636 -4.27344,1.617188 -0.005,0.0019 -0.009,0.004 -0.0137,0.0059 l -0.01,0.0039 c -1.47591,0.602581 -2.9298,1.240642 -4.35547,1.921875 -0.56836,0.271597 -1.21078,0.636345 -1.96093,1.025391 -0.8329,0.431952 -1.58873,0.795894 -2.23243,1.164062 l -0.01,0.0059 c -0.40418,0.233731 -1.11161,0.646207 -1.55078,0.921875 a 2.8349285,2.8349285 0 0 1 -0.0371,0.02148 c -1.07801,0.653589 -2.12894,1.356088 -3.16016,2.101563 -1.03132,0.745536 -2.04239,1.534274 -3.03906,2.355468 -0.99645,0.821003 -1.97879,1.676006 -2.94922,2.552735 -0.74369,0.671892 -1.48679,1.376737 -2.24805,2.097656 -0.25132,0.237998 -0.46241,0.425171 -0.625,0.580078 -0.003,0.0025 -0.005,0.0053 -0.008,0.0078 l -0.004,0.0039 c -1.40952,1.365595 -2.79665,2.822773 -4.11328,4.320312 -1.3211,1.502656 -2.57299,3.046141 -3.70508,4.576172 a 2.8349285,2.8349285 0 0 0 0,0.002 c -0.99183,1.337348 -1.92751,2.716539 -2.79882,4.132813 -0.87109,1.415897 -1.6783,2.87002 -2.41211,4.353516 -0.73387,1.483632 -1.3946,2.996135 -1.97657,4.539062 -0.58185,1.54271 -1.0851,3.113001 -1.5,4.705078 a 2.8349285,2.8349285 0 0 1 -0.006,0.02539 c -0.50517,1.866582 -0.91648,3.759473 -1.24024,5.669922 -0.32369,1.910045 -0.56083,3.839959 -0.71875,5.783203 -0.15197,1.870575 -0.22237,3.751347 -0.23437,5.634767 0.0188,-0.005 0.0359,-0.0126 0.0547,-0.0176 1.44707,-0.40039 2.90189,-0.73557 4.35352,-1.02539 1.45147,-0.28978 2.89703,-0.532 4.32617,-0.75 h -0.01 c 1.50875,-0.23533 3.13984,-0.45129 4.53125,-0.62891 a 2.8349285,2.8349285 0 0 1 0.0156,-0.002 c 0.96131,-0.11721 1.86499,-0.1859 2.79492,-0.26953 0.0929,-1.037268 0.1843,-2.075612 0.33594,-3.107423 0.20458,-1.392019 0.46254,-2.774683 0.77344,-4.144531 0.31119,-1.371229 0.67648,-2.730736 1.0957,-4.076172 a 2.8349285,2.8349285 0 0 0 0,-0.002 c 0.4187,-1.343715 0.89326,-2.670497 1.41992,-3.978516 0.001,-0.002 0.001,-0.004 0.002,-0.0059 0.39222,-1.039409 0.81463,-2.069779 1.27148,-3.085938 0.46514,-1.034619 0.96363,-2.055039 1.49219,-3.058593 0.52968,-1.005684 1.08989,-1.990989 1.67773,-2.957032 0.58805,-0.966386 1.20624,-1.917458 1.85547,-2.849609 0.64791,-0.930283 1.32329,-1.840103 2.02734,-2.728516 0.70508,-0.889679 1.43798,-1.757137 2.19532,-2.599609 0.37344,-0.41542 0.70151,-0.73244 0.94336,-0.988281 0.41644,-0.44054 0.87147,-0.944018 1.4082,-1.470703 0.8028,-0.787769 1.63098,-1.547868 2.47852,-2.28125 0.006,-0.0055 0.0135,-0.01013 0.0195,-0.01563 0.004,-0.003 0.007,-0.0068 0.01,-0.0098 0.96357,-0.854323 1.95296,-1.685478 2.9668,-2.488281 1.02219,-0.809432 2.07054,-1.592595 3.14453,-2.345703 1.0732,-0.752572 2.16827,-1.472071 3.28516,-2.158203 1.06807,-0.656139 2.15241,-1.271226 3.24218,-1.853516 l 0.002,-0.002 c -0.0748,0.03975 -0.0196,0.0039 0.17578,-0.09961 1.15937,-0.614458 2.34015,-1.194399 3.54297,-1.732421 1.20107,-0.537223 2.42322,-1.03358 3.66211,-1.486329 1.24066,-0.453415 2.49671,-0.860071 3.76757,-1.220703 1.27292,-0.361214 2.56268,-0.674497 3.86719,-0.9375 a 2.8349285,2.8349285 0 0 1 0.0274,-0.0059 c 0.96945,-0.1857 1.94047,-0.337122 2.91406,-0.455078 0.97168,-0.117725 1.94787,-0.204389 2.92187,-0.261719 1.94603,-0.1145 3.88381,-0.113254 5.80274,-0.02734 0.54478,0.01023 1.39668,0.02029 2.07617,0.03125 h 0.002 c 3.39553,0.05108 6.79145,0.100931 10.1875,0.150391 a 2.8349285,2.8349285 0 0 1 1.94727,4.855469 c -4.27995,4.21194 -8.66221,8.211731 -12.83594,12.326172 -0.54572,0.557968 -1.08008,1.103333 -1.58203,1.644531 -0.51235,0.552417 -0.99216,1.100898 -1.41797,1.648437 -0.42682,0.548859 -0.79879,1.094271 -1.10351,1.638672 -0.30584,0.546415 -0.54712,1.094394 -0.72071,1.660156 a 2.8349285,2.8349285 0 0 1 -0.041,0.125 c -0.29949,0.836278 -0.52807,1.716708 -0.66797,2.601563 -0.0694,0.439216 -0.11583,0.881277 -0.14063,1.324219 -0.0248,0.441897 -0.0266,0.877138 -0.004,1.304687 0.0228,0.42833 0.069,0.849245 0.14062,1.259766 0.0725,0.415504 0.16806,0.816058 0.28711,1.195312 0.11947,0.380631 0.26572,0.749207 0.43945,1.111328 0.17288,0.360336 0.37045,0.705259 0.59375,1.03125 a 2.8349285,2.8349285 0 0 1 0.0293,0.04492 c 0.26836,0.40816 0.58361,0.787507 0.93945,1.132813 0.35435,0.343843 0.75197,0.655287 1.18164,0.927734 0.42759,0.271134 0.88663,0.50091 1.36524,0.685547 0.47933,0.18492 0.97717,0.322566 1.48047,0.410156 a 2.8349285,2.8349285 0 0 1 0.11133,0.02344 c 0.52231,0.112817 1.051,0.201478 1.58007,0.267578 h 0.002 c 0.53012,0.06609 1.06513,0.109502 1.60742,0.132812 1.08414,0.04658 2.18662,0.01161 3.29687,-0.0957 1.10926,-0.107243 2.23193,-0.2867 3.35547,-0.521484 1.12225,-0.234511 2.24288,-0.525476 3.35157,-0.855469 0.77416,-0.235793 1.53819,-0.486493 2.28124,-0.757812 0.74903,-0.273494 1.47514,-0.567713 2.17383,-0.888672 0.69816,-0.320721 1.37104,-0.669508 2.00977,-1.050781 0.6383,-0.381021 1.24106,-0.79234 1.80859,-1.244141 a 2.8349285,2.8349285 0 0 1 0.0625,-0.04883 c 1.23588,-0.928777 2.45898,-1.912852 3.6875,-2.923828 1.21326,-0.998429 2.43504,-2.025438 3.68946,-3.046875 l 0.002,-0.002 c 0.61441,-0.521866 1.18782,-1.094257 1.70703,-1.707031 0.52044,-0.614247 0.98687,-1.26678 1.38477,-1.947265 0.3987,-0.681858 0.73099,-1.392258 0.98632,-2.117188 0.2552,-0.724494 0.43375,-1.46608 0.53125,-2.222656 a 2.8349285,2.8349285 0 0 1 0.008,-0.05859 c 0.0666,-0.445068 0.1104,-0.894643 0.1289,-1.347656 0.0184,-0.452242 0.0114,-0.90551 -0.0176,-1.359375 -0.0291,-0.455489 -0.0811,-0.908714 -0.15625,-1.357422 -0.0753,-0.449653 -0.17224,-0.897311 -0.29296,-1.339844 -0.12048,-0.441651 -0.26392,-0.879288 -0.42774,-1.30664 -0.16365,-0.426917 -0.35052,-0.848085 -0.55664,-1.257813 -0.20497,-0.407432 -0.42938,-0.802837 -0.67578,-1.189453 -0.24505,-0.38449 -0.5103,-0.75522 -0.79297,-1.111328 a 2.8349285,2.8349285 0 0 1 -0.0273,-0.03516 c -0.5675,-0.738015 -1.16444,-1.455366 -1.78907,-2.152344 -0.62586,-0.698362 -1.2786,-1.376983 -1.95507,-2.037109 -0.67759,-0.661212 -1.37855,-1.304332 -2.09766,-1.927735 -0.71203,-0.617279 -1.44194,-1.216136 -2.1875,-1.798828 -0.65926,-0.50208 -1.33554,-0.983309 -2.02734,-1.443359 -0.68915,-0.458279 -1.39629,-0.896404 -2.11719,-1.3125 -0.72135,-0.416344 -1.45191,-0.809888 -2.19336,-1.177735 -0.74275,-0.368488 -1.4968,-0.712904 -2.26367,-1.035156 -0.76657,-0.322123 -1.54316,-0.619938 -2.32617,-0.892578 -0.78229,-0.272384 -1.57547,-0.520553 -2.37696,-0.744141 -0.80253,-0.223881 -1.60913,-0.42257 -2.41797,-0.59375 -0.81136,-0.171723 -1.62788,-0.3181 -2.44921,-0.4375 a 2.8349285,2.8349285 0 0 1 -0.0742,-0.01172 c -1.52494,-0.263275 -3.06192,-0.480181 -4.60547,-0.654297 -1.5436,-0.174113 -3.09385,-0.304685 -4.64844,-0.396485 -1.00933,-0.05474 -2.02088,-0.09116 -3.03125,-0.107422 z m -71.82227,0.01367 c -1.28274,0.04213 -2.33135,0.08254 -3.58984,0.175782 a 2.8349285,2.8349285 0 0 1 -0.0273,0.002 c -0.76712,0.04933 -1.56733,0.123495 -2.39649,0.197265 h -0.002 c -1.5519,0.163488 -3.096,0.350813 -4.61719,0.587891 -1.52258,0.237294 -3.02214,0.523259 -4.48633,0.876953 -1.46234,0.35325 -2.88971,0.777215 -4.26953,1.287109 -0.69019,0.255055 -1.36689,0.529887 -2.02929,0.830079 -0.66521,0.301452 -1.31701,0.625865 -1.95118,0.976562 a 2.8349285,2.8349285 0 0 1 -0.0527,0.0293 c -0.791,0.415908 -1.57022,0.855526 -2.33789,1.316406 -0.76571,0.459705 -1.51957,0.942891 -2.26172,1.447266 -0.74237,0.504521 -1.46992,1.027444 -2.17969,1.570312 -0.71191,0.544504 -1.40852,1.108675 -2.08789,1.691407 -0.67884,0.582283 -1.34165,1.183638 -1.98828,1.804687 -0.64703,0.621442 -1.27514,1.258408 -1.88281,1.912109 -0.60687,0.652843 -1.1956,1.326904 -1.76758,2.017578 -0.55102,0.66536 -1.08333,1.348422 -1.5957,2.042969 -0.23057,0.352762 -0.44269,0.714433 -0.62891,1.085938 -0.19489,0.388795 -0.36827,0.794529 -0.51953,1.210937 -0.15126,0.416432 -0.27768,0.837801 -0.37891,1.263672 -0.10124,0.425952 -0.17867,0.861389 -0.23047,1.298828 -0.0517,0.437628 -0.0781,0.873609 -0.0781,1.306641 0,0.434147 0.0257,0.866222 0.0781,1.294922 0.0518,0.423716 0.13239,0.846059 0.23829,1.263672 0.10554,0.416251 0.23578,0.822905 0.39257,1.214843 a 2.8349285,2.8349285 0 0 1 0.0234,0.06055 c 0.14488,0.387668 0.31127,0.764804 0.49805,1.136719 0.18731,0.372996 0.39389,0.737076 0.61914,1.09375 0.4527,0.716847 0.98326,1.40946 1.57617,2.078125 0.59305,0.668821 1.25037,1.315694 1.95117,1.939453 0.69929,0.622417 1.44222,1.223503 2.20899,1.804688 a 2.8349285,2.8349285 0 0 1 0.0684,0.05078 c 1.80791,1.457707 3.48405,2.940141 5.16015,4.193359 0.83713,0.62592 1.67392,1.196027 2.52149,1.6875 0.42678,0.247477 0.85067,0.473627 1.27734,0.675782 0.42764,0.202615 0.86345,0.383286 1.30859,0.542968 a 2.8349285,2.8349285 0 0 1 0.0625,0.02344 c 1.22114,0.47088 2.46259,0.893619 3.71289,1.251953 1.24963,0.35815 2.50874,0.652963 3.76758,0.867187 1.25954,0.214345 2.51685,0.349105 3.76368,0.390625 0.62506,0.02077 1.24653,0.01766 1.86328,-0.0098 a 2.8349285,2.8349285 0 0 0 0.002,0 c 0.60285,-0.02656 1.20622,-0.07769 1.81055,-0.154297 0.003,-4e-4 0.005,-0.0016 0.008,-0.002 0.58888,-0.08338 1.16738,-0.19364 1.71484,-0.335938 0.55064,-0.143124 1.07417,-0.31805 1.55664,-0.527344 0.48072,-0.208528 0.91639,-0.44965 1.30078,-0.720703 0.3871,-0.272942 0.72207,-0.572307 1.01172,-0.914062 a 2.8349285,2.8349285 0 0 1 0.082,-0.09375 c 0.21923,-0.236841 0.42207,-0.489316 0.60938,-0.755859 0.18511,-0.263408 0.35431,-0.541332 0.50976,-0.835938 0.15485,-0.293445 0.29413,-0.59964 0.41407,-0.912109 0.12012,-0.312948 0.22284,-0.63827 0.31054,-0.97461 0.1746,-0.669687 0.28051,-1.370207 0.31641,-2.082031 0.0358,-0.710711 0.003,-1.432724 -0.0977,-2.140625 a 2.8349285,2.8349285 0 0 1 -0.004,-0.02734 c -0.0922,-0.697905 -0.23343,-1.391409 -0.42188,-2.064453 -0.18908,-0.675307 -0.42503,-1.329122 -0.70703,-1.953125 -0.2828,-0.625785 -0.61145,-1.22249 -0.98437,-1.779297 -0.37344,-0.557561 -0.79028,-1.074975 -1.25196,-1.548828 a 2.8349285,2.8349285 0 0 1 -0.0527,-0.05664 c -0.91455,-0.991009 -1.85958,-1.962588 -2.82617,-2.925782 -0.96672,-0.96333 -1.95354,-1.917037 -2.95313,-2.867187 -1.99425,-1.895611 -4.04249,-3.786462 -6.07422,-5.748047 -1.07765,-1.020963 -2.15488,-2.041634 -3.23242,-3.0625 a 2.8349285,2.8349285 0 0 1 1.94922,-4.892578 c 5.08426,0.002 10.23543,-0.180441 15.45313,-0.181641 h 0.0293 c 1.09456,-0.01071 2.18471,0.02134 3.27149,0.09766 1.09454,0.07687 2.18332,0.196393 3.26367,0.355469 1.08131,0.159217 2.15384,0.359067 3.21484,0.59375 1.0624,0.235002 2.11363,0.506043 3.1543,0.810547 1.0398,0.304261 2.07122,0.640984 3.08984,1.009766 1.01934,0.369044 2.02277,0.770018 3.01172,1.195312 0.91989,0.395584 1.82902,0.820861 2.72852,1.263672 0.28977,-0.269516 0.56455,-0.534796 0.86328,-0.804687 1.02249,-0.923768 2.06912,-1.834649 3.14453,-2.720704 1.07516,-0.885861 2.18154,-1.748178 3.32422,-2.574218 0.90843,-0.656711 1.85754,-1.269141 2.81445,-1.873047 -1.24978,-0.536199 -2.48794,-1.093886 -3.76953,-1.574219 -2.03074,-0.761113 -4.09368,-1.454995 -6.17383,-2.101562 -1.33545,-0.409326 -2.68345,-0.773601 -4.04101,-1.089844 -1.35865,-0.316488 -2.72517,-0.58677 -4.09961,-0.806641 -1.37394,-0.219788 -2.75645,-0.389719 -4.14258,-0.509765 -1.38618,-0.120058 -2.77743,-0.188519 -4.16602,-0.205079 a 2.8349285,2.8349285 0 0 1 -0.0508,-0.002 c -1.15436,-0.0345 -2.56318,-0.02374 -3.64258,0 z m 51.60743,21.21875 c -0.38438,0.222688 -0.78225,0.431151 -1.15821,0.66211 -1.01905,0.626025 -2.01868,1.283936 -2.99804,1.970703 -0.97861,0.686228 -1.93798,1.403353 -2.87891,2.148437 -0.93915,0.743658 -1.85708,1.514311 -2.75195,2.308594 a 2.8349285,2.8349285 0 0 1 -0.0273,0.02344 c -0.57283,0.494979 -1.12062,1.015726 -1.66797,1.535156 0.59752,0.696536 1.20485,1.384943 1.76758,2.109375 0.85551,1.101331 1.67298,2.237078 2.44531,3.410156 0.77207,1.172635 1.49823,2.380105 2.17383,3.617187 a 2.8349285,2.8349285 0 0 1 0.0117,0.02344 c 0.54986,1.029488 1.07669,2.076526 1.57422,3.140625 0.49757,1.064158 0.9627,2.139786 1.40039,3.228516 0.43751,1.088285 0.8479,2.192094 1.22461,3.310547 0.37621,1.116977 0.71879,2.245562 1.02734,3.382812 0.30855,1.137173 0.58486,2.285163 0.82227,3.443359 0.23744,1.158318 0.43681,2.324026 0.59766,3.496094 0.16087,1.172078 0.28308,2.352305 0.36328,3.539065 0.0399,0.58977 0.0315,1.05728 0.0449,1.39453 0.0255,0.64242 0.0694,1.3629 0.0664,2.16015 0.009,1.91571 -0.0828,3.82788 -0.27149,5.72852 -0.18893,1.90271 -0.47287,3.79532 -0.84961,5.66797 -0.37669,1.87237 -0.84503,3.7245 -1.39844,5.54883 -0.18927,0.62396 -0.37271,1.03406 -0.44921,1.26757 -0.4329,1.32084 -0.88728,2.70063 -1.45899,4.10157 l -0.006,0.0137 c -0.51732,1.36229 -1.07227,2.7131 -1.66406,4.04492 -0.60233,1.35554 -1.24363,2.69497 -1.92383,4.01562 -0.68015,1.32059 -1.39849,2.62282 -2.15625,3.90235 -0.75731,1.27877 -1.55338,2.53523 -2.38867,3.76758 -0.40292,0.59444 -0.84302,1.16066 -1.26367,1.74218 0.53103,0.63566 1.05115,1.28055 1.60742,1.89454 0.90467,0.9985 1.84394,1.9704 2.81055,2.91211 0.96614,0.94125 1.9617,1.85372 2.98632,2.73828 0.76172,0.65758 1.55367,1.28005 2.34375,1.90429 0.26374,-0.3367 0.54148,-0.6743 0.79883,-1.01172 1.0036,-1.3158 1.98647,-2.64783 2.95313,-3.99609 1.92502,-2.685 3.78603,-5.43247 5.60351,-8.21289 0.71375,-1.13163 1.41858,-2.26217 2.09766,-3.39648 0.67905,-1.13427 1.33206,-2.27108 1.94531,-3.41407 0.6136,-1.14362 1.1864,-2.29332 1.70703,-3.45508 0.3638,-0.81179 0.69628,-1.7085 1.04688,-2.66406 0.1758,-0.47914 0.30299,-0.74475 0.33789,-0.84375 0.44388,-1.33911 0.7865,-2.80514 1.12891,-4.27539 0.28628,-1.23854 0.54761,-2.48172 0.7832,-3.73047 0.23575,-1.24962 0.44641,-2.50328 0.6289,-3.75781 0.18255,-1.25484 0.33686,-2.51117 0.46485,-3.77344 0.12811,-1.26351 0.22988,-2.5269 0.30078,-3.78906 a 2.8349285,2.8349285 0 0 1 0,-0.01 c 0.009,-0.1521 0.0191,-0.51649 0.0352,-0.87696 0.0224,-0.50167 0.0462,-0.95836 0.0566,-1.36133 0.0315,-1.24208 0.0354,-2.48762 0.01,-3.73047 -0.0258,-1.24333 -0.0813,-2.484166 -0.16797,-3.722649 -0.0866,-1.237746 -0.20596,-2.473286 -0.35742,-3.703125 -0.15127,-1.228253 -0.33484,-2.450077 -0.55469,-3.664063 -0.22012,-1.215515 -0.4744,-2.421044 -0.76562,-3.611328 -0.29121,-1.190169 -0.62018,-2.370404 -0.98828,-3.539062 -0.36784,-1.167771 -0.77461,-2.319151 -1.22071,-3.453125 -0.44666,-1.135441 -0.9333,-2.253837 -1.46289,-3.353516 -0.5849,-1.181715 -1.21419,-2.341286 -1.88281,-3.480469 -0.67308,-1.146771 -1.38567,-2.271057 -2.13476,-3.371093 -0.75064,-1.102253 -1.53489,-2.182037 -2.35352,-3.236329 -0.8198,-1.055781 -1.67345,-2.088422 -2.55664,-3.099609 -0.88235,-1.010216 -1.79583,-1.997076 -2.73633,-2.964844 -0.21045,-0.216554 -0.45232,-0.439003 -0.67187,-0.65625 z m 79.66211,26.115235 c -0.42985,-0.01173 -0.86273,0.0047 -1.30079,0.04492 l 0.002,-0.002 c -0.4356,0.04022 -0.86762,0.10487 -1.29492,0.19336 -0.4261,0.08823 -0.8544,0.202577 -1.28516,0.339843 -0.43032,0.137122 -0.85245,0.294666 -1.26758,0.472657 -0.83914,0.359781 -1.66102,0.804781 -2.44531,1.316406 -0.78477,0.511949 -1.53506,1.092703 -2.23633,1.722656 a 2.8349285,2.8349285 0 0 1 -0.0625,0.05273 c -1.33705,1.1338 -2.66685,2.247863 -3.96289,3.367187 -1.29102,1.114978 -2.54814,2.236418 -3.75391,3.390625 -0.003,0.0025 -0.005,0.0052 -0.008,0.0078 l -0.004,0.0039 c -0.34951,0.339689 -0.68272,0.696187 -1,1.068359 -0.32341,0.379387 -0.63297,0.776203 -0.92773,1.1875 -0.59108,0.824768 -1.13006,1.714738 -1.62305,2.648438 a 2.8349285,2.8349285 0 0 1 -0.0312,0.0586 c -0.66246,1.18705 -1.27303,2.40608 -1.80859,3.64648 -0.53529,1.23977 -0.99392,2.49894 -1.35938,3.76953 -0.18261,0.63494 -0.34221,1.27512 -0.4746,1.91211 -0.13267,0.6383 -0.24056,1.27516 -0.31836,1.91211 -0.0778,0.63658 -0.12719,1.27449 -0.14649,1.91211 -0.0189,0.62371 -0.004,1.24658 0.0371,1.8711 0.0488,0.51888 0.14594,1.03864 0.29492,1.54101 0.15168,0.51147 0.3543,1.00467 0.59961,1.46484 0.24632,0.46208 0.53508,0.89022 0.86328,1.27735 0.32771,0.38654 0.6963,0.73245 1.09766,1.0293 a 2.8349285,2.8349285 0 0 1 0.0547,0.043 c 0.33225,0.25841 0.68053,0.48899 1.04687,0.69532 0.36654,0.20644 0.74702,0.38658 1.14453,0.54296 0.39974,0.15725 0.81521,0.28928 1.23828,0.39649 0.42377,0.10738 0.86142,0.19165 1.3125,0.25195 0.44931,0.06 0.90721,0.0947 1.36915,0.10742 0.4614,0.0127 0.92852,0.002 1.39843,-0.0312 a 2.8349285,2.8349285 0 0 0 0.002,0 c 0.93933,-0.0657 1.87896,-0.21901 2.78125,-0.44921 0.52013,-0.13284 1.03941,-0.32394 1.57031,-0.56836 0.52814,-0.24316 1.06663,-0.53923 1.62305,-0.87891 1.08921,-0.66495 2.23515,-1.49655 3.49023,-2.32813 0.006,-0.005 0.0135,-0.01 0.0195,-0.0137 3.24438,-2.27195 6.43569,-4.82743 9.86719,-7.24218 a 2.8349285,2.8349285 0 0 1 0.29492,-0.18165 c 0.72917,-0.38918 1.54428,-0.63667 2.49219,-0.63867 0.47322,-8.7e-4 0.98472,0.0659 1.5039,0.24219 0.33909,0.11518 0.64536,0.35182 0.96094,0.55859 0.40534,0.21265 0.80916,0.44867 1.08594,0.74219 0.35747,0.37907 0.58434,0.76103 0.74414,1.0918 0.33074,0.68462 0.4325,1.25001 0.5,1.67578 a 2.8349285,2.8349285 0 0 1 0.0352,0.50195 c -0.0169,0.83436 -0.15317,1.53109 -0.26758,2.09961 -0.11421,0.56751 -0.20593,1.00494 -0.23633,1.31446 a 2.8349285,2.8349285 0 0 1 -0.0215,0.17382 c -0.43357,2.69075 -0.81304,5.49667 -1.37891,8.3418 -0.28259,1.42081 -0.61181,2.85574 -1.02539,4.28906 -0.41113,1.42483 -0.90448,2.8471 -1.51367,4.25391 -0.49459,1.1959 -1.03314,2.36796 -1.61328,3.51367 -0.58558,1.15644 -1.21443,2.28654 -1.87891,3.39063 -0.66498,1.10491 -1.3676,2.18396 -2.10547,3.23828 -0.7367,1.05266 -1.5087,2.08261 -2.3125,3.08593 -0.80216,1.0013 -1.63462,1.97739 -2.49609,2.92774 -0.86256,0.95153 -1.7523,1.87301 -2.66211,2.76758 -0.91113,0.89587 -1.84444,1.76615 -2.80078,2.60937 -0.95506,0.84209 -1.93191,1.65827 -2.92579,2.44727 a 2.8349285,2.8349285 0 0 1 -0.01,0.008 c -0.46465,0.36515 -0.94678,0.70608 -1.42188,1.05664 0.17332,1.69816 0.30495,3.39924 0.38086,5.09961 v 0.002 c 0.0809,1.7995 0.10775,3.59662 0.0899,5.39063 0.009,0.9882 -0.0141,1.97096 -0.0625,2.94726 -0.0488,0.98546 -0.12498,1.96629 -0.22657,2.94336 -0.0223,0.21519 -0.0729,0.42399 -0.0976,0.63868 0.98868,-0.65466 1.99927,-1.27501 2.96094,-1.96875 a 2.8349285,2.8349285 0 0 1 0.0195,-0.0137 c 0.43401,-0.30731 0.90402,-0.66716 1.46679,-1.08593 0.42034,-0.33531 0.9637,-0.74388 1.23243,-0.95899 1.56985,-1.26356 3.10094,-2.54659 4.55664,-3.875 0.72677,-0.66322 1.43515,-1.33947 2.12109,-2.03125 0.68465,-0.69045 1.34498,-1.39469 1.97852,-2.11914 0.69339,-0.80919 1.52927,-1.79939 2.18164,-2.65234 a 2.8349285,2.8349285 0 0 1 0.01,-0.0137 c 0.93882,-1.21296 1.84029,-2.45504 2.70703,-3.72461 0.86717,-1.27019 1.69997,-2.56738 2.49805,-3.88672 0.79768,-1.31866 1.56165,-2.66027 2.29492,-4.02344 0.73308,-1.3628 1.43393,-2.74486 2.10352,-4.14062 0.23905,-0.51726 0.60358,-1.32077 0.84765,-1.9004 a 2.8349285,2.8349285 0 0 1 0.0156,-0.0371 c 0.50566,-1.1555 0.96797,-2.33009 1.38867,-3.52149 0.42107,-1.19241 0.80223,-2.4037 1.14453,-3.62695 0.34227,-1.22309 0.6464,-2.46016 0.91602,-3.70899 0.26943,-1.24798 0.50455,-2.50686 0.70703,-3.77343 a 2.8349285,2.8349285 0 0 1 0.002,-0.0215 c 0.22473,-1.33806 0.41587,-2.72687 0.57031,-4.10937 0.15394,-1.37792 0.27227,-2.75133 0.35547,-4.07032 0.0749,-1.26973 0.11891,-2.49101 0.12891,-3.81445 0.005,-1.14082 -0.006,-2.32178 -0.0527,-3.46875 -0.0461,-1.1353 -0.12831,-2.23611 -0.25196,-3.22656 -0.10006,-0.69564 -0.14941,-1.07096 -0.27343,-1.71289 -0.16611,-0.85892 -0.3678,-1.76921 -0.55079,-2.47657 -0.23287,-0.89972 -0.49543,-1.79003 -0.78711,-2.67187 -0.29145,-0.88119 -0.61228,-1.75393 -0.96093,-2.61914 -0.34927,-0.86671 -0.72484,-1.72188 -1.125,-2.5625 -0.40072,-0.8418 -0.8288,-1.67418 -1.28125,-2.496098 -0.45239,-0.82181 -0.92789,-1.631718 -1.42578,-2.425782 -0.49894,-0.795724 -1.02003,-1.575871 -1.5625,-2.34375 -0.54236,-0.767716 -1.10612,-1.523074 -1.68946,-2.261718 -0.57439,-0.727321 -1.16901,-1.438643 -1.77929,-2.134766 -0.51885,-0.56322 -1.09022,-1.083641 -1.70508,-1.544922 -0.62058,-0.465566 -1.28171,-0.869394 -1.96289,-1.199219 -0.68113,-0.329791 -1.38675,-0.587178 -2.10547,-0.763671 -0.36206,-0.08891 -0.72355,-0.157176 -1.08203,-0.203126 -0.36105,-0.04629 -0.72664,-0.07102 -1.0918,-0.07422 a 2.8349285,2.8349285 0 0 1 -0.0527,-0.002 z m -188.43165,0.382812 a 2.8349285,2.8349285 0 0 1 -0.0703,0.01758 c -0.48078,-0.02095 -0.96648,-0.01204 -1.45117,0.02344 -0.48178,0.03527 -0.96466,0.09904 -1.44531,0.189453 -0.47976,0.09025 -0.9543,0.207065 -1.42188,0.349609 -0.46921,0.143039 -0.93276,0.311448 -1.38281,0.503907 -0.45249,0.193515 -0.8915,0.410592 -1.31836,0.65039 -0.42741,0.240099 -0.84337,0.502199 -1.24219,0.78711 -0.39321,0.280909 -0.77307,0.588493 -1.14062,0.917968 a 2.8349285,2.8349285 0 0 0 -0.002,0 c -0.36777,0.329646 -0.71137,0.673398 -1.0293,1.03125 a 2.8349285,2.8349285 0 0 1 -0.0391,0.04297 c -0.66243,0.716064 -1.29742,1.464162 -1.90821,2.240234 -0.61054,0.775768 -1.19256,1.575626 -1.74804,2.396485 -0.55624,0.821975 -1.08745,1.668326 -1.59375,2.53125 -0.50185,0.855337 -0.97838,1.727083 -1.4336,2.615233 -0.002,0.004 -0.004,0.008 -0.006,0.0117 l -0.004,0.008 c -0.35242,0.70223 -0.6852,1.4164 -0.99414,2.13867 -0.31236,0.73027 -0.60071,1.46891 -0.86719,2.21484 -0.5338,1.49418 -0.97768,3.02142 -1.32617,4.56836 -0.17425,0.77354 -0.32624,1.551 -0.45313,2.33399 -0.12658,0.78115 -0.22784,1.56717 -0.30664,2.35742 -0.0789,0.79087 -0.13446,1.58382 -0.16406,2.37305 -0.0297,0.79089 -0.0336,1.58247 -0.0137,2.375 a 2.8349285,2.8349285 0 0 1 0,0.082 c -0.004,1.03266 0.0108,1.98992 0.0469,2.92773 a 2.8349285,2.8349285 0 0 1 0.002,0.0391 c 0.0193,0.78038 0.0548,1.39446 0.10352,2.26953 0,0.005 0.002,0.0106 0.002,0.0156 v 0.006 c 0.14053,2.21612 0.3685,4.43074 0.69336,6.625 0.16302,1.10111 0.35008,2.19444 0.5625,3.2832 0.21253,1.08933 0.45064,2.17357 0.71485,3.24805 0.26391,1.07325 0.55665,2.13987 0.875,3.19727 0.31872,1.05865 0.66218,2.10457 1.03515,3.13672 0.37351,1.03361 0.77488,2.0559 1.20703,3.0664 0.43162,1.00924 0.89289,2.00473 1.38477,2.98633 a 2.8349285,2.8349285 0 0 1 0.008,0.0137 c 0.62982,1.27443 1.28874,2.53493 1.97656,3.7793 0.68751,1.24377 1.40518,2.47154 2.1504,3.68164 0.74504,1.2099 1.51695,2.4033 2.31836,3.57422 0.79978,1.16857 1.62767,2.31418 2.48242,3.43945 0.72834,0.95032 1.48964,1.87561 2.2832,2.77539 0.79409,0.90038 1.61874,1.77558 2.4707,2.62305 0.85256,0.84806 1.73418,1.6704 2.64063,2.4668 0.90617,0.79615 1.83734,1.56714 2.79101,2.31054 a 2.8349285,2.8349285 0 0 1 0.0371,0.0273 c 1.60885,1.29735 3.26179,2.54433 4.95508,3.72461 1.69265,1.17981 3.42394,2.29204 5.19531,3.32421 -8.9e-4,-5.1e-4 0.21115,0.0904 0.61133,0.31836 1.60752,0.91563 3.20524,1.7772 4.81836,2.52539 0.92177,0.42755 1.85581,0.83032 2.80078,1.21094 0.94263,0.3797 1.89424,0.73298 2.85547,1.06055 a 2.8349285,2.8349285 0 0 0 0,0.002 c 0.77278,0.2635 1.84506,0.60252 2.71289,0.84375 a 2.8349285,2.8349285 0 0 1 0.006,0.002 c 0.89755,0.25112 1.80048,0.47439 2.71094,0.67187 0.89958,0.19512 1.80846,0.36422 2.7207,0.50977 h 0.004 c -0.18829,-0.0279 -0.22252,-0.0343 0.0371,0.004 a 2.8349285,2.8349285 0 0 1 0.0293,0.006 c 1.83534,0.29018 3.69161,0.48297 5.55664,0.58594 1.88078,0.1038 3.7726,0.11893 5.66602,0.0527 1.89442,-0.0663 3.79046,-0.2135 5.67774,-0.42968 a 2.8349285,2.8349285 0 0 1 0.008,0 c 1.27639,-0.14199 2.82088,-0.37429 4.21484,-0.61524 1.8165,-0.32376 3.63269,-0.72737 5.44727,-1.16992 0.20147,-0.12574 0.36505,-0.23608 0.63672,-0.37891 0.54688,-0.28749 1.1132,-0.54249 1.69336,-0.76172 0.58056,-0.21936 1.18001,-0.40375 1.79687,-0.54687 0.6183,-0.14345 1.24876,-0.24499 1.88867,-0.29883 h 0.002 c 0.37862,-0.0318 0.66893,-0.0167 0.98242,-0.0117 1.97236,-0.66127 3.92145,-1.3888 5.83008,-2.19726 1.92517,-0.81549 3.81403,-1.7118 5.66406,-2.68164 1.24329,-0.74027 2.45335,-1.54316 3.63672,-2.4043 1.20482,-0.87674 2.38331,-1.81112 3.54687,-2.78516 1.0535,-0.88189 2.09147,-1.80427 3.125,-2.74023 -0.49508,-0.48226 -1.00644,-0.95461 -1.48828,-1.43945 a 2.8349285,2.8349285 0 0 1 -0.0137,-0.0137 c -1.81685,-1.85582 -3.67097,-3.726 -5.49414,-5.66211 -0.91175,-0.96822 -1.81531,-1.9525 -2.70313,-2.96093 -0.17803,-0.20223 -0.33759,-0.40639 -0.51172,-0.60938 -0.71164,0.49157 -1.39771,1.00047 -2.13671,1.4707 -1.66351,1.05855 -3.36383,2.05544 -5.09766,2.99024 -1.73309,0.9344 -3.50179,1.80747 -5.30078,2.61523 a 2.8349285,2.8349285 0 0 1 -0.0469,0.0215 c -1.28304,0.54781 -2.58603,1.04409 -3.90234,1.49219 -1.31805,0.44868 -2.65214,0.8482 -4,1.19726 -1.34827,0.34916 -2.70915,0.64688 -4.07813,0.89453 -1.3686,0.24758 -2.7471,0.44666 -4.13281,0.5918 -1.3833,0.14489 -2.77453,0.2387 -4.16797,0.2793 -1.39205,0.0406 -2.78568,0.0285 -4.17773,-0.0371 -1.39261,-0.0656 -2.78346,-0.18582 -4.16797,-0.35938 -1.3823,-0.17329 -2.75774,-0.40086 -4.125,-0.68359 -0.003,-0.001 -0.005,-0.001 -0.008,-0.002 -0.7475,-0.14277 -1.45016,-0.30627 -2.10742,-0.45703 -0.18346,-0.0421 -0.47588,-0.0928 -0.86915,-0.18945 -1.00177,-0.24628 -1.99516,-0.51956 -2.98242,-0.82031 -0.98588,-0.30033 -1.96605,-0.62862 -2.9375,-0.98438 -0.97008,-0.35526 -1.93025,-0.7372 -2.8789,-1.14648 -0.95118,-0.41036 -1.88982,-0.84802 -2.8125,-1.31055 -0.92369,-0.46303 -1.83619,-0.95443 -2.73438,-1.47265 -0.89869,-0.51851 -1.78002,-1.06228 -2.64453,-1.63282 -0.77118,-0.50894 -1.5051,-1.03609 -2.2168,-1.5625 0.0146,0.0108 -0.11103,-0.0701 -0.29882,-0.20898 -0.007,-0.005 -0.0125,-0.0106 -0.0195,-0.0156 -0.008,-0.006 -0.004,-0.002 -0.0117,-0.008 -0.99163,-0.72558 -1.963,-1.47959 -2.91406,-2.25781 -0.96015,-0.78565 -1.90232,-1.5971 -2.82226,-2.43945 -0.91892,-0.84145 -1.81455,-1.70973 -2.6836,-2.60157 -0.87027,-0.89305 -1.71466,-1.81157 -2.53125,-2.7539 -0.81598,-0.94165 -1.60502,-1.90821 -2.36523,-2.90039 -0.76023,-0.99221 -1.48913,-2.00633 -2.18555,-3.04297 -0.6969,-1.03735 -1.36357,-2.10028 -1.99414,-3.1836 -0.63098,-1.08398 -1.22357,-2.18819 -1.78125,-3.3125 a 2.8349285,2.8349285 0 0 1 -0.008,-0.0137 c -0.58907,-1.2041 -1.12011,-2.43182 -1.5957,-3.67773 -0.47562,-1.24595 -0.89528,-2.51154 -1.26172,-3.78906 -0.3664,-1.27732 -0.67979,-2.5658 -0.94141,-3.86524 -0.2612,-1.29735 -0.47354,-2.60606 -0.63476,-3.91992 l 0.0156,0.10937 c -0.65665,-4.03936 -1.31302,-8.07879 -1.9707,-12.11718 a 2.8349285,2.8349285 0 0 1 4.4414,-2.76368 c 4.99684,3.5554 9.79663,7.25442 14.68164,10.70508 h 0.002 c 0.60708,0.412 1.20695,0.81815 1.80273,1.19727 0.59316,0.37744 1.17787,0.72542 1.75,1.02539 0.57338,0.30062 1.13351,0.55282 1.67969,0.74609 0.55003,0.19465 1.07999,0.32899 1.60156,0.40039 a 2.8349285,2.8349285 0 0 1 0.13086,0.0215 c 0.87837,0.16274 1.79297,0.24814 2.69922,0.24414 0.45649,-0.002 0.90566,-0.0244 1.34375,-0.0703 0.43842,-0.0461 0.87497,-0.11619 1.30273,-0.20899 0.42311,-0.0918 0.83396,-0.20593 1.23243,-0.34375 0.40071,-0.13858 0.78255,-0.29925 1.14453,-0.48047 0.36341,-0.18194 0.71383,-0.38848 1.04297,-0.61718 0.32808,-0.22801 0.63564,-0.47784 0.92773,-0.75586 a 2.8349285,2.8349285 0 0 1 0.0371,-0.0352 c 0.36111,-0.33143 0.68577,-0.70243 0.9707,-1.10938 0.28655,-0.40925 0.53185,-0.85238 0.73047,-1.31445 0.19923,-0.4635 0.35504,-0.95339 0.46094,-1.45508 0.10587,-0.50151 0.16297,-1.01299 0.16797,-1.51953 a 2.8349285,2.8349285 0 0 1 0.002,-0.10937 c 0.0468,-0.9682 0.009,-1.94258 -0.10352,-2.92578 -0.11208,-0.9812 -0.29993,-1.97051 -0.54882,-2.96094 -0.24893,-0.99056 -0.55919,-1.98109 -0.91797,-2.96485 -0.3547,-0.97256 -0.75633,-1.93716 -1.18945,-2.89062 -0.39832,-0.81882 -0.80371,-1.62598 -1.22657,-2.40625 -0.42784,-0.78949 -0.87176,-1.55123 -1.33984,-2.27344 -0.46851,-0.722855 -0.96119,-1.407877 -1.48633,-2.044917 -0.52278,-0.634189 -1.08068,-1.222105 -1.67969,-1.759766 a 2.8349285,2.8349285 0 0 1 -0.0449,-0.04102 c -1.13108,-1.059851 -2.30548,-2.09766 -3.50586,-3.132813 -1.19751,-1.032686 -2.41985,-2.063537 -3.64648,-3.115234 -0.58094,-0.492458 -1.19458,-0.942571 -1.83203,-1.339844 -0.63583,-0.39627 -1.30201,-0.741859 -1.98438,-1.029297 -0.68038,-0.286601 -1.37186,-0.512879 -2.06836,-0.669922 -0.70015,-0.157865 -1.40411,-0.248435 -2.10937,-0.265625 z m 93.1543,18.271489 c -0.44817,-0.003 -0.89544,-10e-4 -1.33984,0.004 -2.95906,0.10086 -5.91019,0.24721 -8.85156,0.45899 -1.18901,0.0856 -2.45008,0.24176 -3.79297,0.36523 -1.73311,0.15935 -3.41064,0.28484 -5.01953,0.48047 l -0.0176,0.002 c -1.363,0.17407 -2.9469,0.38516 -4.35938,0.60547 a 2.8349285,2.8349285 0 0 1 -0.008,0.002 c -1.37117,0.20915 -2.7329,0.43963 -4.07227,0.70703 -1.33921,0.26738 -2.65949,0.57229 -3.95117,0.92969 -1.09493,0.30294 -2.19232,0.67381 -3.30273,1.08789 -0.3959,0.14734 -0.5559,0.18704 -0.4668,0.15234 -1.22049,0.47496 -2.40203,1.01608 -3.53711,1.63672 a 2.8349285,2.8349285 0 0 1 -0.0898,0.0469 c -1.54432,0.77355 -3.06748,1.58859 -4.56445,2.44532 -1.4971,0.8568 -2.96957,1.75621 -4.41211,2.69726 -1.44223,0.94083 -2.85453,1.92349 -4.23438,2.94922 -1.37928,1.02531 -2.72578,2.09402 -4.03516,3.20508 -1.08718,0.93241 -2.32047,2.03539 -3.38671,3.06445 a 2.8349285,2.8349285 0 0 1 -0.008,0.006 c -0.83605,0.8012 -1.65416,1.62184 -2.44922,2.46289 -0.79505,0.84107 -1.56882,1.70473 -2.31836,2.58594 -0.74941,0.88107 -1.4737,1.77942 -2.16992,2.69726 -0.69762,0.91973 -1.36718,1.85607 -2.0039,2.8086 -0.63641,0.95207 -1.24222,1.92378 -1.81641,2.91406 -0.57282,0.98791 -1.11054,1.99224 -1.61328,3.01367 -0.50326,1.02247 -0.97074,2.06061 -1.39649,3.11133 -0.42582,1.05099 -0.81086,2.11853 -1.15624,3.20313 a 2.8349285,2.8349285 0 0 1 -0.008,0.0215 c -0.37334,1.13904 -0.7146,2.29159 -1.02344,3.45117 -0.30948,1.16201 -0.58794,2.32845 -0.83398,3.50196 -0.24654,1.17583 -0.4614,2.36232 -0.64844,3.55273 -0.0108,0.0693 -0.0208,0.16112 -0.0312,0.23242 0.20636,0.14264 0.41496,0.30146 0.6211,0.4375 0.77174,0.50932 1.55698,0.99439 2.35547,1.45508 0.79897,0.46099 1.61353,0.89945 2.4414,1.31445 0.82888,0.41551 1.66933,0.80787 2.51758,1.17383 0.85073,0.36704 1.71144,0.70851 2.58203,1.02734 0.86927,0.31834 1.75102,0.61377 2.64063,0.88477 0.1804,0.055 0.36406,0.0975 0.54492,0.15039 0.11574,-0.5935 0.22057,-1.19004 0.35547,-1.7793 0.23382,-1.02137 0.4968,-2.03584 0.78906,-3.04492 0.29192,-1.00793 0.61155,-2.0082 0.96094,-2.99805 0.35022,-0.99223 0.731,-1.97096 1.13672,-2.9375 0.40656,-0.96857 0.84102,-1.92668 1.30468,-2.87109 0.45852,-0.93392 0.94465,-1.85705 1.46094,-2.76758 0.88428,-1.62537 1.84792,-3.20976 2.88867,-4.74414 1.04578,-1.5418 2.16742,-3.03114 3.36133,-4.45898 1.19483,-1.4289 2.46507,-2.79886 3.80469,-4.09961 1.33274,-1.29408 2.73471,-2.51837 4.20312,-3.66602 0.003,-0.002 0.005,-0.004 0.008,-0.006 1.42228,-1.13122 2.9003,-2.18766 4.42382,-3.16601 1.52594,-0.97991 3.09548,-1.88088 4.69922,-2.70899 0.37302,-0.19256 0.5472,-0.25426 0.5,-0.23046 1.4241,-0.71885 2.88807,-1.41325 4.41016,-2.03711 1.6672,-0.68334 3.36197,-1.2937 5.07226,-1.83594 1.36021,-0.46218 2.73485,-0.88891 4.12305,-1.27735 1.40791,-0.39396 2.82699,-0.74728 4.25391,-1.06054 1.17099,-0.25707 2.32164,-0.46216 3.44336,-0.6543 0.16042,-0.0275 0.44746,-0.097 0.86914,-0.16406 1.4471,-0.2302 2.89859,-0.41609 4.35547,-0.5586 a 2.8349285,2.8349285 0 0 0 0.002,0 c 1.45707,-0.14251 2.91982,-0.24146 4.38672,-0.29296 1.46626,-0.0514 2.9348,-0.0553 4.40234,-0.0117 1.46702,0.0436 2.93399,0.13455 4.40039,0.27734 1.20764,0.11759 2.40965,0.29139 3.60938,0.47852 0.35292,-1.26579 0.70429,-2.53296 0.96289,-3.81836 0.34002,-1.69012 0.59747,-3.39623 0.76758,-5.10938 0.15295,-1.54064 0.20975,-3.08789 0.21875,-4.63476 -0.74093,-0.074 -1.52634,-0.16104 -2.22657,-0.21094 -1.88919,-0.12213 -3.75711,-0.24929 -5.60546,-0.33789 -1.38568,-0.0664 -2.76101,-0.11014 -4.12696,-0.11914 z m 38.76953,6.64062 c -0.0243,0.26106 -0.0361,0.52456 -0.0625,0.78516 -0.13617,1.34306 -0.30164,2.68092 -0.49609,4.01758 -0.19449,1.33697 -0.4182,2.66828 -0.66797,3.99218 -0.24993,1.32479 -0.5266,2.6441 -0.83008,3.95704 a 2.8349285,2.8349285 0 0 1 -0.002,0.004 c -0.25138,1.07933 -0.54733,2.26864 -0.89453,3.48438 0.37735,0.21322 0.75501,0.40231 1.13086,0.63086 1.18782,0.72224 2.34467,1.48992 3.4707,2.29492 1.12712,0.80579 2.22631,1.65209 3.29297,2.54101 1.06532,0.88783 2.09692,1.81448 3.09375,2.7793 0.99779,0.96574 1.95775,1.96982 2.87891,3.00586 0.92138,1.03632 1.80656,2.10721 2.64843,3.21289 0.84145,1.10514 1.6402,2.2438 2.39453,3.41211 0.74718,1.15723 1.45115,2.34646 2.10743,3.5625 0.98294,1.75682 1.87577,3.56521 2.66992,5.41797 0.39744,0.92725 0.77136,1.86688 1.11914,2.81641 0.34798,0.95009 0.6682,1.90925 0.96289,2.875 0.29436,0.96463 0.56534,1.93989 0.80664,2.92578 0.24134,0.98607 0.45136,1.97697 0.63477,2.9707 0.17578,0.95245 0.32073,1.90294 0.4414,2.85156 l 0.002,0.01 a 2.8349285,2.8349285 0 0 0 0,0.002 c -0.0146,-0.11491 -0.006,-0.0733 0.0195,0.125 0.002,0.0194 -0.001,-0.007 0.002,0.0176 0.12402,0.99912 0.21735,2.00341 0.28125,3.00781 10e-4,0.0104 10e-4,0.0208 0.002,0.0312 0.0909,1.23735 0.14983,2.47929 0.17383,3.72266 0.0242,1.25205 0.0145,2.50689 -0.0312,3.76367 -0.0457,1.25663 -0.12699,2.51297 -0.24414,3.76367 -0.11731,1.25236 -0.27218,2.50031 -0.46289,3.74414 -0.19048,1.2423 -0.41706,2.48149 -0.68359,3.71485 -0.1416,0.65516 -0.30033,1.20327 -0.41211,1.6582 -0.14503,0.59019 -0.29093,1.26577 -0.50196,2.01172 -0.34393,1.21577 -0.72626,2.41919 -1.14843,3.60937 -0.42218,1.19022 -0.88407,2.37123 -1.38868,3.53711 a 2.8349285,2.8349285 0 0 1 -0.004,0.006 c -0.52197,1.19722 -1.09497,2.36892 -1.7168,3.51172 -0.62194,1.14299 -1.29403,2.25852 -2.00977,3.34375 -0.71597,1.08562 -1.4763,2.14012 -2.27734,3.16016 -0.802,1.02126 -1.64449,2.00747 -2.52539,2.95898 l 0.0684,-0.0762 c -2.79191,3.24482 -5.58894,6.48277 -8.38086,9.7207 a 2.8349285,2.8349285 0 0 1 -4.97266,-1.61914 c -0.48548,-5.90196 -0.77435,-11.75928 -1.22656,-17.54687 -0.10405,-1.26199 -0.26643,-2.73964 -0.49414,-3.98243 a 2.8349285,2.8349285 0 0 1 -0.0195,-0.12695 c -0.0608,-0.44476 -0.15428,-0.88918 -0.2793,-1.33008 -0.12424,-0.43816 -0.28159,-0.87334 -0.46679,-1.30664 -0.18505,-0.43293 -0.39843,-0.86004 -0.63672,-1.27734 -0.2396,-0.4196 -0.50293,-0.82987 -0.78907,-1.22852 a 2.8349285,2.8349285 0 0 1 -0.0332,-0.0469 c -0.46639,-0.67753 -1.00936,-1.32287 -1.60742,-1.90625 -0.30281,-0.29538 -0.61185,-0.57015 -0.92773,-0.82031 -0.31744,-0.25142 -0.65031,-0.48572 -0.99415,-0.70118 0.004,0.003 -0.0987,-0.0551 -0.12109,-0.0664 h -0.002 c -0.75189,-0.20123 -1.52388,-0.40277 -2.33203,-0.64649 -0.71399,-0.21532 -1.36995,-0.44008 -2.01172,-0.65429 -0.42655,-0.0153 -0.85608,0.005 -1.28516,0.0801 -0.45798,0.0798 -0.91664,0.20996 -1.37109,0.38672 -0.4557,0.17724 -0.90764,0.40203 -1.33985,0.66602 -0.4342,0.26522 -0.84895,0.56857 -1.23828,0.9043 a 2.8349285,2.8349285 0 0 1 -0.082,0.0684 c -0.55413,0.44256 -1.0833,0.92441 -1.58789,1.4414 -0.50421,0.51661 -0.98612,1.07128 -1.44726,1.6543 -0.46107,0.58293 -0.90068,1.19376 -1.32032,1.82812 -0.4169,0.63024 -0.8146,1.28316 -1.19531,1.95118 l -0.008,0.0137 c -0.23371,0.43647 -0.48446,0.87556 -0.66211,1.22656 -0.002,0.004 -0.004,0.008 -0.006,0.0117 l -0.004,0.008 c -0.36715,0.74338 -0.7195,1.48845 -1.04687,2.23242 -0.33101,0.75226 -0.63882,1.507 -0.91602,2.26172 -0.27741,0.75533 -0.52483,1.51025 -0.73437,2.26563 -0.20539,0.7404 -0.37274,1.48169 -0.50196,2.22461 -0.11839,0.90003 -0.19895,1.81707 -0.25195,2.75 -0.054,0.95093 -0.0795,1.92252 -0.0937,2.91406 -0.0283,1.97688 -0.006,4.01942 -0.0684,6.11914 l 0.002,-0.084 c -6.2e-4,0.81727 0.0643,1.64142 0.19532,2.44532 0.13117,0.80433 0.32931,1.59082 0.59179,2.3457 0.26305,0.7565 0.58899,1.47588 0.97852,2.14844 0.19471,0.33618 0.40607,0.66418 0.63281,0.97656 0.22778,0.31381 0.47122,0.61235 0.72852,0.89648 a 2.8349285,2.8349285 0 0 1 0.0332,0.0371 c 0.31029,0.35514 0.64329,0.69452 0.9961,1.01563 0.3482,0.31691 0.71709,0.61701 1.10742,0.90039 0.38771,0.28146 0.79114,0.54077 1.20703,0.7793 0.41946,0.24056 0.85092,0.46086 1.28906,0.65429 0.44083,0.19462 0.89071,0.3651 1.35156,0.51367 0.46211,0.149 0.93086,0.27395 1.40039,0.37305 0.47146,0.0995 0.94771,0.17501 1.42774,0.22461 0.47809,0.0493 0.95826,0.0723 1.4375,0.0703 a 2.8349285,2.8349285 0 0 1 0.0664,0 c 0.93325,0.0173 1.86828,0.005 2.80274,-0.0352 0.93452,-0.0402 1.8694,-0.10873 2.79883,-0.20703 0.93225,-0.0986 1.85596,-0.22413 2.77343,-0.38086 0.92004,-0.15716 1.835,-0.34409 2.74024,-0.56055 0.90353,-0.21606 1.80137,-0.46328 2.68945,-0.74023 0.88713,-0.27666 1.76142,-0.58354 2.62305,-0.91993 0.86224,-0.33664 1.71282,-0.70411 2.54687,-1.10156 0.83391,-0.39737 1.6531,-0.82421 2.45508,-1.2832 a 2.8349285,2.8349285 0 0 1 0.0274,-0.0156 c 1.06276,-0.59256 2.09517,-1.25013 3.10351,-1.96093 1.00953,-0.71166 1.99581,-1.47753 2.9668,-2.28321 0.96979,-0.8047 1.92578,-1.65112 2.875,-2.52539 0.94061,-0.86633 1.8722,-1.7567 2.80273,-2.6582 1.48646,-1.4743 2.91536,-3.00943 4.27344,-4.59961 1.35828,-1.5904 2.64514,-3.23572 3.8457,-4.93359 0.59982,-0.84828 1.17935,-1.71155 1.73633,-2.5879 0.55664,-0.87577 1.08875,-1.76339 1.59766,-2.66406 0.50964,-0.90196 0.99518,-1.81561 1.45312,-2.74023 0.45836,-0.92546 0.89184,-1.86397 1.29688,-2.81445 a 2.8349285,2.8349285 0 0 1 0.0156,-0.0391 c 0.91726,-2.06521 1.81021,-4.38172 2.53125,-6.44336 0.59509,-1.7155 1.14529,-3.44411 1.63477,-5.18164 0.37723,-1.33907 0.69603,-2.73485 1.00976,-4.16992 0.11513,-0.52662 0.22177,-0.87718 0.25977,-1.06641 0.3517,-1.75182 0.62579,-3.50939 0.80859,-5.26757 0.0913,-0.87863 0.15953,-1.75855 0.20313,-2.63868 0.0436,-0.88083 0.0646,-1.75973 0.0566,-2.63671 a 2.8349285,2.8349285 0 0 0 0,-0.002 2.8349285,2.8349285 0 0 1 0,-0.0547 c 0.0176,-1.70618 -0.01,-3.41078 -0.0859,-5.11133 -0.076,-1.70068 -0.20027,-3.3974 -0.3789,-5.08399 -0.0289,-0.27317 -0.10653,-0.68116 -0.17383,-1.23242 -0.16034,-1.31435 -0.31762,-2.58197 -0.5293,-3.79492 -0.29045,-1.66438 -0.63958,-3.31725 -1.05078,-4.95117 a 2.8349285,2.8349285 0 0 1 -0.004,-0.0137 c -0.20066,-0.81595 -0.49892,-1.92504 -0.77148,-2.81055 a 2.8349285,2.8349285 0 0 1 -0.004,-0.0137 c -0.49041,-1.62232 -1.05891,-3.21832 -1.70508,-4.78125 -0.64649,-1.56372 -1.37236,-3.09521 -2.16992,-4.58985 -0.79758,-1.49468 -1.66637,-2.95156 -2.60547,-4.35742 -0.938,-1.40423 -1.94798,-2.7608 -3.02343,-4.06641 -0.44873,-0.54269 -1.08367,-1.31205 -1.57618,-1.875 a 2.8349285,2.8349285 0 0 0 0,-0.002 c -0.92009,-1.0526 -1.87069,-2.07686 -2.84961,-3.07226 -0.98007,-0.9966 -1.98828,-1.96436 -3.02343,-2.9043 -1.03538,-0.94016 -2.09859,-1.85416 -3.18555,-2.73828 -1.0856,-0.88305 -2.19699,-1.73594 -3.33203,-2.56446 -1.13575,-0.82904 -2.29123,-1.63121 -3.46485,-2.40039 -1.17451,-0.76977 -2.36933,-1.51045 -3.58398,-2.22461 -1.21376,-0.71362 -2.4441,-1.39734 -3.68945,-2.05273 -0.51166,-0.26927 -1.03611,-0.51396 -1.55274,-0.77344 z m -52.17968,13.89453 c -0.27376,0.0548 -0.5654,0.0992 -0.83399,0.15821 -1.32398,0.29066 -2.6386,0.61786 -3.9414,0.98242 -1.30346,0.36473 -2.59682,0.76644 -3.87891,1.20312 a 2.8349285,2.8349285 0 0 1 -0.0586,0.0195 c -1.56811,0.49716 -3.11674,1.05554 -4.63477,1.67774 -0.56045,0.22971 -1.11721,0.52046 -1.67578,0.77539 0.01,0.0232 0.0172,0.0471 0.0273,0.0703 0.35536,0.81859 0.74595,1.63702 1.16016,2.45508 0.82049,1.62047 1.73689,3.23374 2.6875,4.85742 0.003,0.005 0.007,0.0106 0.01,0.0156 l 0.01,0.0176 c 0.95666,1.58179 1.94292,3.14733 2.95508,4.69726 1.01963,1.56135 2.06499,3.10553 3.13476,4.63477 1.07023,1.5299 2.16357,3.04461 3.2793,4.54492 1.11141,1.49447 2.24624,2.97566 3.39844,4.44336 l 0.0117,0.0156 c 0.047,0.0577 0.16926,0.18992 0.36523,0.43164 0.68143,0.84052 1.36013,1.65887 2.05078,2.44336 0.83672,0.9504 1.69615,1.88785 2.57422,2.82032 1.7515,1.85998 3.57409,3.69903 5.40234,5.5664 l 0.008,0.008 0.008,0.008 c 1.12965,1.13626 2.31754,2.28219 3.51367,3.40039 0.119,0.11109 0.1597,0.15349 0.125,0.12109 1.24196,1.15818 2.49181,2.28101 3.70117,3.32813 a 2.8349285,2.8349285 0 0 0 0.002,0.002 c 0.95626,0.83003 1.921,1.64355 2.89648,2.42578 0.97549,0.78223 1.95897,1.53128 2.95898,2.23242 1.00052,0.70146 2.0184,1.35564 3.05665,1.95117 1.03799,0.59538 2.09517,1.13199 3.17968,1.59571 a 2.8349285,2.8349285 0 0 1 0.0332,0.0137 c 1.17762,0.52109 2.36514,1.01979 3.5625,1.49414 1.19849,0.47481 2.40567,0.92579 3.61914,1.34961 0.32326,0.11291 0.7318,0.23859 1.15039,0.37305 0.34585,0.0233 0.68333,0.0378 1.10742,0.11132 0.63883,0.11067 1.25945,0.26779 1.85937,0.46094 0.60321,0.19421 1.18664,0.4276 1.75,0.69336 0.29709,0.14014 0.44029,0.23139 0.61719,0.33399 0.32584,0.0919 0.65526,0.18754 0.89453,0.24804 1.24455,0.31474 2.49178,0.60118 3.74414,0.85547 1.25453,0.25474 2.51345,0.47835 3.77539,0.66992 1.26116,0.19147 2.52796,0.35077 3.79883,0.47657 1.26933,0.12567 2.54211,0.21693 3.81641,0.27343 0.75283,0.0268 1.77821,0.0643 2.57422,0.0723 1.68111,0.0117 3.35853,-0.0443 5.02929,-0.17188 0.51605,-0.0394 1.09918,-0.13402 1.64454,-0.20312 0.20575,-0.98742 0.39518,-1.98038 0.54882,-2.98242 0.17373,-1.13305 0.31483,-2.27123 0.42188,-3.41407 0.1072,-1.14447 0.18096,-2.29197 0.22266,-3.43945 0.0417,-1.1473 0.0515,-2.29774 0.0293,-3.44922 -0.0216,-1.11908 -0.0773,-2.23799 -0.1582,-3.35351 -0.86836,0.14415 -1.7261,0.33887 -2.60156,0.44336 -1.94206,0.23177 -3.89542,0.36327 -5.85157,0.39257 a 2.8349285,2.8349285 0 0 0 -0.002,0 c -1.95656,0.0293 -3.91741,-0.0436 -5.87305,-0.22851 -0.97922,-0.0926 -1.95524,-0.21343 -2.92578,-0.36133 -0.95909,-0.14615 -1.91745,-0.31915 -2.87109,-0.52148 -0.005,-0.001 -0.0106,-0.003 -0.0156,-0.004 -1.7755,-0.35481 -3.52436,-0.8026 -5.24414,-1.33203 -1.72486,-0.531 -3.42117,-1.14411 -5.08398,-1.83399 -1.66294,-0.68991 -3.29115,-1.45486 -4.88086,-2.28515 -1.58028,-0.82536 -3.12402,-1.71908 -4.62695,-2.66797 -1.24048,-0.74703 -2.46298,-1.52845 -3.66211,-2.34375 -0.7593,-0.51626 -1.44076,-1.03179 -2.08008,-1.49805 -0.41598,-0.30337 -0.92123,-0.64281 -1.47656,-1.06836 -1.16141,-0.88997 -2.29794,-1.81273 -3.40625,-2.76953 -1.10763,-0.95621 -2.18774,-1.94527 -3.23829,-2.96875 -1.05006,-1.02302 -2.06994,-2.07911 -3.05468,-3.16601 -0.98565,-1.08792 -1.93436,-2.20809 -2.84766,-3.35743 a 2.8349285,2.8349285 0 0 0 -0.002,0 c -0.23114,-0.29089 -0.34289,-0.46294 -0.36719,-0.49414 -0.76106,-0.97614 -1.52538,-1.98523 -2.25976,-3.04882 -0.83362,-1.20731 -1.62629,-2.44386 -2.37696,-3.71094 -0.002,-0.003 -0.004,-0.007 -0.006,-0.01 -0.001,-0.001 -0.001,-0.003 -0.002,-0.004 -1.01106,-1.6863 -1.95891,-3.41076 -2.8418,-5.16602 -0.88525,-1.75994 -1.70608,-3.55094 -2.46093,-5.36914 -0.53773,-1.29525 -1.00279,-2.61991 -1.47461,-3.94141 z m -61.65821,64.68164 c 0.2547,0.84449 0.48011,1.69328 0.76172,2.53321 0.56996,1.69991 1.18914,3.38838 1.84766,5.0625 v -0.004 c 0.5444,1.37812 1.21703,2.95977 1.875,4.3711 a 2.8349285,2.8349285 0 0 1 0.01,0.0215 c 0.41588,0.91232 0.8589,1.81169 1.32618,2.69531 0.46767,0.88435 0.96045,1.7559 1.47851,2.61719 0.51765,0.86062 1.05815,1.70732 1.62109,2.54297 0.56246,0.83494 1.15066,1.6605 1.75586,2.47265 1.20921,1.62273 2.49572,3.19584 3.84766,4.72266 1.35118,1.52597 2.76649,3.00473 4.22656,4.43555 l 0.002,0.002 c 0.7224,0.70733 1.71267,1.64514 2.54882,2.38281 a 2.8349285,2.8349285 0 0 1 0.0117,0.01 c 0.85508,0.76305 1.72059,1.50512 2.59961,2.21484 0.87862,0.70939 1.77146,1.38611 2.68164,2.02149 0.91007,0.6353 1.83529,1.22904 2.7793,1.76757 0.9453,0.53928 1.90806,1.02478 2.89453,1.44922 a 2.8349285,2.8349285 0 0 1 0.0352,0.0156 c 0.99148,0.44231 2.00398,0.84642 3.03125,1.21484 1.02616,0.36803 2.06702,0.69857 3.11914,0.99219 1.05112,0.29334 2.11515,0.55071 3.18945,0.77148 1.07424,0.22076 2.15427,0.40485 3.23828,0.55274 0.51365,0.0583 1.18362,0.15702 1.60352,0.20312 l -0.0215,-0.004 c 1.65284,0.16907 3.27505,0.3035 4.83399,0.3125 0.77639,0.005 1.54202,-0.023 2.29101,-0.0879 0.73891,-0.064 1.45844,-0.1672 2.15821,-0.31446 0.4185,-0.10197 0.82987,-0.22717 1.22851,-0.3789 0.41564,-0.15821 0.82343,-0.34362 1.22071,-0.55469 0.39357,-0.20911 0.77759,-0.44461 1.15039,-0.70508 a 2.8349285,2.8349285 0 0 0 0,-0.002 c 0.37224,-0.26008 0.7258,-0.54044 1.06054,-0.83985 0.33745,-0.3018 0.65827,-0.62321 0.95508,-0.96093 0.29777,-0.33881 0.57365,-0.6946 0.82617,-1.06446 0.25016,-0.36638 0.47849,-0.75218 0.6836,-1.15234 0.20344,-0.39694 0.3806,-0.80498 0.52929,-1.2207 a 2.8349285,2.8349285 0 0 1 0.0234,-0.0606 c 0.16025,-0.41758 0.29976,-0.84536 0.41992,-1.28516 0.11982,-0.4385 0.22029,-0.88918 0.30469,-1.35351 0.16744,-0.92093 0.26404,-1.88058 0.30664,-2.85742 0,-0.003 0.002,-0.007 0.002,-0.01 0.008,-0.39721 0.0265,-1.05502 0.0195,-1.36133 l 0.002,0.0723 c -0.1124,-2.36114 -0.0474,-4.62837 -0.0859,-6.77149 -0.0192,-1.07034 -0.0636,-2.10893 -0.1582,-3.11718 -0.0931,-0.99239 -0.23823,-1.94749 -0.45117,-2.8711 -0.35482,-1.26187 -0.76587,-2.51293 -1.23829,-3.73437 -0.48112,-1.24396 -1.02329,-2.45871 -1.63086,-3.62891 -0.60815,-1.17137 -1.27897,-2.29751 -2.01757,-3.36719 -0.36986,-0.53564 -0.757,-1.05708 -1.16016,-1.5625 -0.39819,-0.49918 -0.81684,-0.98413 -1.25195,-1.45507 -0.49248,-0.50927 -1.00649,-0.99743 -1.53516,-1.43946 -0.53951,-0.45109 -1.08915,-0.85273 -1.63672,-1.17968 -0.54981,-0.32831 -1.09882,-0.58496 -1.64258,-0.76368 -0.26836,-0.0882 -0.53866,-0.15828 -0.8125,-0.20898 -0.22568,-0.0418 -0.44767,-0.0601 -0.66992,-0.0742 h -0.002 c -1.85965,0.60185 -3.73771,1.16909 -5.65039,1.65234 -0.0116,0.003 -0.004,9.1e-4 -0.0156,0.004 -0.29676,0.20698 -0.5885,0.42298 -0.86523,0.6582 -0.62144,0.52825 -1.19469,1.12949 -1.69141,1.76563 a 2.8349285,2.8349285 0 0 1 -0.0293,0.0352 c -0.38174,0.47284 -0.73264,0.9668 -1.05078,1.48047 -0.31825,0.51386 -0.60003,1.04166 -0.8379,1.57618 -0.23933,0.53782 -0.43756,1.08605 -0.58984,1.63867 -0.15212,0.55206 -0.25936,1.10899 -0.31836,1.67383 a 2.8349285,2.8349285 0 0 1 -0.01,0.0801 c -0.17242,1.29659 -0.31227,2.60445 -0.42969,3.92188 -0.11734,1.31665 -0.21162,2.64522 -0.29492,3.98242 -0.16653,2.67261 -0.28411,5.37964 -0.44532,8.11328 l 0.002,-0.27539 c 0.023,0.59657 -0.0881,1.1799 -0.26563,1.66016 -0.1771,0.47915 -0.41363,0.86825 -0.63672,1.17383 -0.44194,0.60538 -0.79979,0.91996 -0.92382,1.06054 a 2.8349285,2.8349285 0 0 1 -2.14063,0.95899 c -0.0353,-2e-4 -0.40983,0.0588 -1.08984,0.0508 -0.34385,-0.004 -0.78097,-0.0358 -1.28321,-0.1836 -0.4828,-0.14208 -1.01729,-0.41711 -1.4707,-0.79296 -0.69819,-0.55702 -1.21125,-1.14447 -1.61523,-1.63477 -0.41776,-0.507 -0.744,-0.92127 -1.00586,-1.19531 a 2.8349285,2.8349285 0 0 1 -0.0918,-0.10157 c -1.78477,-2.05955 -3.69208,-4.15411 -5.50586,-6.41992 -0.90668,-1.13266 -1.79097,-2.3102 -2.61914,-3.55078 -0.82221,-1.23167 -1.59008,-2.5271 -2.26953,-3.90234 -0.62372,-1.20663 -1.19406,-2.43221 -1.71485,-3.67188 -0.52466,-1.24885 -1.00156,-2.51362 -1.42968,-3.79687 -0.30849,-0.92467 -0.56308,-1.8638 -0.82227,-2.80078 -0.42366,-0.0814 -0.8491,-0.14668 -1.27148,-0.23828 -1.01669,-0.22052 -2.02761,-0.47069 -3.03321,-0.75196 -1.02217,-0.28413 -2.15072,-0.64316 -3.02539,-0.9414 -1.06067,-0.36149 -2.10765,-0.75305 -3.14258,-1.16993 -0.87603,-0.35285 -1.74073,-0.73438 -2.60156,-1.125 z" />
    </g>
  </g>
</svg>
